{"glyphs":{"0":{"ha":852,"x_min":63,"x_max":794,"o":"m 248 821 q 608 821 248 821 q 740 766 686 821 q 794 635 794 712 l 794 185 q 739 54 794 109 q 608 0 685 0 l 248 0 q 117 54 172 0 q 63 185 63 109 l 63 635 q 117 766 63 712 q 248 821 172 821 m 275 720 q 204 691 233 720 q 176 621 177 663 l 176 200 q 204 130 177 157 q 275 102 233 102 l 582 102 q 653 130 625 102 q 681 200 682 159 l 681 621 q 652 691 681 663 q 582 720 625 720 l 275 720 z "},"1":{"ha":286,"x_min":90,"x_max":198,"o":"m 90 821 l 198 821 l 198 0 l 90 0 l 90 821 z "},"2":{"ha":846,"x_min":68,"x_max":781,"o":"m 96 821 l 595 821 q 726 766 672 821 q 781 635 781 712 l 781 555 q 726 424 781 479 q 595 370 672 370 l 280 370 q 209 342 237 370 q 181 272 181 314 l 181 110 l 781 110 l 781 0 l 68 0 l 68 288 q 123 418 68 365 q 254 472 178 473 l 569 472 q 640 500 612 472 q 668 570 668 529 l 668 621 q 640 692 668 663 q 569 720 611 720 l 96 720 l 96 821 z "},"3":{"ha":806,"x_min":68,"x_max":755,"o":"m 68 821 l 548 821 q 682 783 631 821 q 734 674 734 747 l 734 564 q 732 531 734 544 q 726 499 731 518 q 708 469 720 481 q 674 450 697 458 q 620 440 652 441 q 715 402 675 441 q 754 316 755 365 l 754 146 q 702 37 754 75 q 568 0 651 0 l 68 0 l 68 96 l 538 96 q 637 168 637 96 l 637 302 q 538 374 637 374 l 177 374 l 177 475 l 517 475 q 616 547 617 475 l 616 648 q 517 724 617 724 l 68 724 l 68 821 z "},"4":{"ha":767,"x_min":37,"x_max":726,"o":"m 338 821 l 463 821 l 181 220 l 470 220 l 470 384 l 579 384 l 579 220 l 726 220 l 726 119 l 579 119 l 579 0 l 470 0 l 470 119 l 37 119 l 37 180 l 338 821 z "},"5":{"ha":849,"x_min":83,"x_max":768,"o":"m 83 821 l 740 821 l 740 719 l 195 719 l 195 502 l 583 502 q 713 448 659 502 q 768 317 768 393 l 768 184 q 713 54 768 109 q 583 0 659 0 q 83 0 583 0 l 83 101 l 556 101 q 627 130 599 101 q 655 199 655 157 l 655 302 q 627 372 655 345 q 556 400 598 400 l 83 400 l 83 821 z "},"6":{"ha":834,"x_min":63,"x_max":781,"o":"m 248 821 q 668 821 248 821 l 668 719 l 274 719 q 203 691 231 719 q 176 621 176 663 l 176 521 l 595 521 q 726 467 672 521 q 781 336 781 412 l 781 184 q 726 54 781 109 q 595 0 672 0 l 248 0 q 117 54 172 0 q 63 184 63 109 l 63 293 l 63 521 l 63 635 q 117 766 63 712 q 248 821 172 821 m 176 419 l 176 301 l 176 199 q 205 129 178 157 q 275 101 233 102 l 569 101 q 640 130 612 101 q 668 199 668 157 l 668 321 q 640 391 668 363 q 569 419 611 419 l 176 419 z "},"7":{"ha":798,"x_min":52,"x_max":741,"o":"m 52 821 l 741 821 l 741 760 l 340 0 l 210 0 l 591 720 l 52 720 l 52 821 z "},"8":{"ha":837,"x_min":56,"x_max":780,"o":"m 262 821 q 574 821 262 821 q 707 783 656 821 q 759 674 759 747 l 759 556 q 758 523 759 536 q 751 491 756 510 q 733 461 745 473 q 699 441 722 450 q 645 432 677 433 q 740 394 701 433 q 779 308 780 357 l 779 146 q 727 37 779 75 q 593 0 676 0 l 242 0 q 108 37 161 0 q 56 146 56 75 l 56 308 q 96 395 56 357 q 191 432 136 433 q 136 441 159 433 q 102 462 115 451 q 85 492 92 473 q 77 523 79 511 q 77 556 77 536 l 77 674 q 128 784 77 747 q 262 821 180 821 m 292 724 q 193 648 193 724 l 193 538 q 292 467 193 467 l 543 467 q 642 538 642 467 l 642 648 q 543 724 642 724 l 292 724 m 273 366 q 174 294 174 366 l 174 168 q 273 96 174 96 l 563 96 q 662 168 663 96 l 662 294 q 563 366 663 366 l 273 366 z "},"9":{"ha":833,"x_min":50,"x_max":770,"o":"m 586 0 q 163 0 586 0 l 163 110 l 559 110 q 630 138 602 110 q 658 208 658 165 l 658 300 l 235 300 q 104 354 159 300 q 50 484 50 408 l 50 635 q 104 766 50 712 q 235 821 159 821 l 585 821 q 716 766 662 821 q 770 635 770 712 l 770 528 l 770 300 l 770 185 q 716 54 770 109 q 586 0 663 0 m 658 410 l 658 528 l 658 613 q 629 684 656 656 q 559 711 602 712 l 262 711 q 191 683 219 711 q 163 613 163 655 l 163 508 q 191 437 163 466 q 262 410 220 410 l 658 410 z "}," ":{"ha":475,"x_min":0,"x_max":0,"o":""},"!":{"ha":277,"x_min":84,"x_max":195,"o":"m 85 0 l 85 120 l 194 120 l 194 0 l 85 0 m 103 215 l 84 821 l 195 821 l 176 215 l 103 215 z "},"\"":{"ha":507,"x_min":77,"x_max":437,"o":"m 78 821 l 201 821 l 143 501 l 77 501 l 78 821 m 314 821 l 437 821 l 379 501 l 313 501 l 314 821 z "},"#":{"ha":747,"x_min":32,"x_max":711,"o":"m 308 488 l 280 334 l 435 334 l 463 488 l 308 488 m 182 334 l 210 488 l 77 488 l 95 586 l 228 586 l 270 821 l 368 821 l 326 586 l 480 586 l 522 821 l 621 821 l 578 586 l 711 586 l 694 488 l 561 488 l 533 334 l 666 334 l 648 235 l 516 235 l 473 0 l 374 0 l 417 235 l 264 235 l 220 0 l 122 0 l 165 235 l 32 235 l 50 334 l 182 334 z "},"$":{"ha":895,"x_min":45,"x_max":853,"o":"m 502 821 l 797 821 l 797 718 l 256 718 q 185 690 214 719 q 157 620 157 663 l 157 578 q 186 507 157 536 q 256 479 214 480 l 668 479 q 799 425 745 480 q 853 295 853 372 l 853 184 q 799 54 853 109 q 668 0 745 0 l 502 0 l 502 -142 l 404 -142 l 404 -1 l 73 0 l 73 102 l 642 102 q 713 131 684 102 q 741 201 741 159 l 741 274 q 712 345 741 317 q 642 372 684 373 l 230 372 q 99 427 154 372 q 45 557 45 481 l 45 636 q 99 767 45 713 q 230 821 154 821 l 404 821 l 404 964 l 502 964 l 502 821 z "},"&":{"ha":1000,"x_min":56,"x_max":964,"o":"m 270 821 q 618 821 270 821 l 618 707 l 302 707 q 199 629 200 708 l 199 558 q 302 484 200 484 l 500 484 l 500 366 l 281 366 q 178 292 179 368 l 178 188 q 281 113 179 113 l 629 113 q 732 188 732 113 l 732 366 l 618 366 l 618 484 l 964 484 l 964 366 l 850 366 l 850 153 q 795 39 850 77 q 656 0 741 0 l 249 0 q 110 39 165 0 q 56 153 56 77 l 56 311 q 98 402 56 362 q 195 442 140 444 q 95 483 113 456 q 77 570 77 511 l 77 668 q 132 783 77 745 q 270 821 186 822 z "},"'":{"ha":271,"x_min":77,"x_max":201,"o":"m 78 821 l 201 821 l 143 501 l 77 501 l 78 821 z "},"(":{"ha":404,"x_min":65,"x_max":346,"o":"m 346 -113 l 346 -215 l 250 -215 q 119 -161 174 -215 q 65 -30 65 -106 l 65 635 q 119 766 65 712 q 250 821 174 821 l 346 821 l 346 720 l 277 720 q 206 691 235 720 q 178 621 179 663 l 178 -15 q 206 -85 179 -58 q 277 -113 235 -113 l 346 -113 z "},")":{"ha":390,"x_min":50,"x_max":330,"o":"m 50 719 l 50 821 l 145 821 q 276 766 221 821 q 330 635 330 711 l 330 -30 q 276 -161 330 -106 q 145 -215 221 -215 l 50 -215 l 50 -114 l 119 -114 q 189 -85 161 -114 q 217 -15 216 -58 l 217 621 q 189 691 216 663 q 119 719 161 719 l 50 719 z "},"+":{"ha":753,"x_min":70,"x_max":686,"o":"m 431 460 l 686 460 l 686 361 l 431 361 l 431 115 l 333 115 l 333 361 l 70 361 l 70 460 l 333 460 l 333 704 l 431 704 l 431 460 z "},",":{"ha":370,"x_min":63,"x_max":296,"o":"m 161 105 l 296 105 l 140 -214 l 63 -176 l 161 105 z "},"-":{"ha":446,"x_min":85,"x_max":362,"o":"m 362 348 l 362 250 l 85 250 l 85 348 l 362 348 z "},".":{"ha":304,"x_min":85,"x_max":218,"o":"m 85 120 l 218 120 l 218 0 l 85 0 l 85 120 z "},"/":{"ha":562,"x_min":26,"x_max":514,"o":"m 408 821 l 514 821 l 132 0 l 26 0 l 408 821 z "},":":{"ha":305,"x_min":87,"x_max":220,"o":"m 87 605 l 220 605 l 220 486 l 87 486 l 87 605 m 87 120 l 220 120 l 220 0 l 87 0 l 87 120 z "},";":{"ha":360,"x_min":52,"x_max":286,"o":"m 153 605 l 286 605 l 286 486 l 153 486 l 153 605 m 150 105 l 284 105 l 128 -214 l 52 -176 l 150 105 z "},"<":{"ha":766,"x_min":68,"x_max":684,"o":"m 684 732 l 684 624 l 186 410 l 684 197 l 684 89 l 68 372 l 68 448 l 684 732 z "},"=":{"ha":790,"x_min":87,"x_max":704,"o":"m 704 586 l 704 488 l 87 488 l 87 586 l 704 586 m 704 334 l 704 235 l 87 235 l 87 334 l 704 334 z "},">":{"ha":764,"x_min":83,"x_max":699,"o":"m 83 732 l 699 448 l 699 372 l 83 89 l 83 197 l 581 410 l 83 624 l 83 732 z "},"?":{"ha":565,"x_min":65,"x_max":519,"o":"m 102 215 l 102 423 l 308 423 q 378 451 350 423 q 407 522 407 479 l 407 621 q 379 691 407 663 q 308 720 351 720 l 65 720 l 65 821 l 334 821 q 465 767 411 821 q 519 636 519 712 l 519 507 q 465 376 519 430 q 334 321 411 321 l 213 321 l 199 215 l 102 215 m 102 0 l 102 120 l 211 120 l 211 0 l 102 0 z "},"@":{"ha":1215,"x_min":94,"x_max":1131,"o":"m 800 98 l 800 506 l 498 506 q 430 481 458 506 q 403 420 404 457 q 403 184 403 420 q 430 123 404 147 q 498 98 458 98 l 800 98 m 1026 99 l 1027 610 q 998 680 1027 652 q 928 709 970 709 l 295 709 q 224 680 253 709 q 197 610 197 652 l 197 -1 q 224 -71 197 -43 q 295 -99 253 -99 l 909 -99 l 909 -191 l 279 -191 q 148 -136 203 -191 q 94 -5 94 -81 l 94 614 q 148 745 94 691 q 279 800 203 800 l 944 800 q 1076 745 1021 800 q 1130 614 1130 691 l 1131 0 l 473 0 q 346 47 399 0 q 294 161 294 95 l 294 444 q 347 558 294 511 q 473 605 399 606 l 909 605 l 909 99 l 1026 99 z "},"A":{"ha":972,"x_min":37,"x_max":951,"o":"m 427 821 l 562 821 l 951 0 l 825 0 l 707 252 l 282 252 l 164 0 l 37 0 l 427 821 m 494 707 l 330 355 l 659 355 l 494 707 z "},"B":{"ha":984,"x_min":95,"x_max":900,"o":"m 95 821 l 694 821 q 827 783 777 821 q 879 674 879 747 l 879 556 q 853 461 879 486 q 765 432 827 437 q 860 394 821 433 q 899 308 900 357 l 899 146 q 847 37 899 75 q 713 0 796 0 l 95 0 l 95 821 m 208 718 l 208 467 l 663 467 q 762 538 762 467 q 762 642 762 538 q 663 718 762 718 l 208 718 m 208 366 l 208 102 l 683 102 q 782 174 783 102 l 782 294 q 683 366 783 366 l 208 366 z "},"C":{"ha":908,"x_min":79,"x_max":836,"o":"m 265 821 q 836 821 265 821 l 836 720 l 292 720 q 220 691 249 720 q 193 621 192 663 l 193 200 q 221 130 193 158 q 292 102 249 102 l 836 102 l 836 0 l 265 0 q 134 54 189 0 q 79 185 79 109 l 79 635 q 134 766 79 712 q 265 821 189 821 z "},"D":{"ha":1027,"x_min":95,"x_max":936,"o":"m 95 821 l 750 821 q 882 766 827 821 q 936 635 936 712 l 936 185 q 881 54 936 109 q 750 0 827 0 l 95 0 l 95 821 m 208 720 l 208 102 l 724 102 q 795 130 766 102 q 823 200 823 159 q 823 621 823 200 q 794 691 823 663 q 724 720 766 720 l 208 720 z "},"E":{"ha":933,"x_min":79,"x_max":863,"o":"m 264 821 q 863 821 264 821 l 863 717 l 291 717 q 220 689 249 718 q 193 618 193 662 l 193 476 l 750 476 l 750 372 l 193 372 l 193 202 q 220 132 193 160 q 291 104 249 104 l 863 104 l 863 0 l 264 0 q 134 54 189 0 q 79 185 79 109 l 79 635 q 134 766 79 712 q 264 821 189 821 z "},"F":{"ha":861,"x_min":89,"x_max":819,"o":"m 274 821 q 819 821 274 821 l 819 717 l 300 717 q 230 689 258 718 q 202 618 203 662 l 202 476 l 705 476 l 705 372 l 202 372 l 202 0 l 89 0 l 89 635 q 143 766 89 712 q 274 821 198 821 z "},"G":{"ha":1006,"x_min":79,"x_max":928,"o":"m 264 821 q 871 821 264 821 l 871 720 l 291 720 q 220 692 249 720 q 193 621 193 665 l 193 200 q 220 130 193 157 q 291 102 249 102 l 716 102 q 787 130 759 102 q 815 200 816 159 l 815 351 l 617 351 l 617 452 l 928 452 l 928 184 q 873 54 928 109 q 743 0 819 0 l 264 0 q 134 54 189 0 q 79 184 79 109 l 79 635 q 134 766 79 712 q 264 821 189 821 z "},"H":{"ha":972,"x_min":95,"x_max":865,"o":"m 95 821 l 208 821 l 208 476 l 752 476 l 752 821 l 865 821 l 865 0 l 752 0 l 752 372 l 208 372 l 208 0 l 95 0 l 95 821 z "},"I":{"ha":300,"x_min":95,"x_max":208,"o":"m 95 821 l 208 821 l 208 0 l 95 0 l 95 821 z "},"J":{"ha":707,"x_min":95,"x_max":617,"o":"m 95 0 l 95 102 l 406 102 q 477 130 449 102 q 505 200 505 157 l 505 821 l 617 821 l 617 185 q 563 54 617 109 q 433 0 509 0 l 95 0 z "},"K":{"ha":880,"x_min":95,"x_max":846,"o":"m 95 821 l 208 821 l 208 393 l 659 821 l 830 821 l 409 437 l 846 0 l 681 0 l 323 362 l 208 264 l 208 0 l 95 0 l 95 821 z "},"L":{"ha":866,"x_min":88,"x_max":808,"o":"m 273 0 q 142 54 197 0 q 88 185 88 109 l 88 821 l 201 821 l 201 200 q 229 130 202 157 q 300 102 258 102 l 808 102 l 808 0 l 273 0 z "},"M":{"ha":1208,"x_min":95,"x_max":1114,"o":"m 1114 821 l 1114 0 l 1001 0 l 1001 578 l 656 20 l 552 20 l 208 578 l 208 0 l 95 0 l 95 821 l 190 821 l 604 145 l 1019 821 l 1114 821 z "},"N":{"ha":1010,"x_min":95,"x_max":916,"o":"m 916 0 l 827 0 l 208 637 l 208 -1 l 95 -1 l 95 821 l 184 821 l 802 186 l 802 821 l 916 821 l 916 0 z "},"O":{"ha":1029,"x_min":79,"x_max":946,"o":"m 264 821 q 760 821 264 821 q 892 766 838 821 q 946 635 946 712 l 946 185 q 891 54 946 109 q 760 0 837 0 l 264 0 q 134 54 189 0 q 79 185 79 109 l 79 635 q 134 766 79 712 q 264 821 189 821 m 291 720 q 220 691 249 720 q 193 621 193 663 l 193 200 q 220 130 193 157 q 291 102 249 102 l 734 102 q 805 130 777 102 q 833 200 833 159 l 833 621 q 804 691 833 663 q 734 720 777 720 l 291 720 z "},"P":{"ha":946,"x_min":95,"x_max":869,"o":"m 95 821 l 684 821 q 815 766 761 821 q 869 635 869 712 l 869 498 q 815 367 869 422 q 684 313 761 313 l 208 313 l 208 0 l 95 0 l 95 821 m 208 720 l 208 415 l 658 415 q 729 444 701 415 q 757 513 757 472 q 757 621 757 513 q 728 691 757 663 q 658 720 700 720 l 208 720 z "},"Q":{"ha":1017,"x_min":79,"x_max":946,"o":"m 593 0 l 264 0 q 134 54 189 0 q 79 185 79 109 l 79 635 q 134 766 79 712 q 264 821 189 821 q 760 821 264 821 q 892 766 838 821 q 946 635 946 712 l 946 185 q 891 54 946 109 q 760 0 837 0 l 710 0 l 766 -114 l 648 -114 l 593 0 m 661 102 l 734 102 q 805 130 777 102 q 833 200 833 159 l 833 621 q 804 691 833 663 q 734 720 777 720 l 291 720 q 220 691 249 720 q 193 621 193 663 l 193 200 q 220 130 193 157 q 291 102 249 102 l 543 102 l 488 216 l 606 216 l 661 102 z "},"R":{"ha":946,"x_min":95,"x_max":869,"o":"m 208 720 l 208 442 l 658 442 q 729 471 701 442 q 757 541 757 499 q 757 621 757 541 q 728 691 757 663 q 658 720 700 720 l 208 720 m 548 340 l 208 340 l 208 0 l 95 0 l 95 821 l 684 821 q 815 766 761 821 q 869 635 869 712 l 869 525 q 815 394 869 449 q 684 340 761 340 l 665 340 l 867 -1 l 741 -1 l 548 340 z "},"S":{"ha":950,"x_min":68,"x_max":863,"o":"m 254 821 q 807 821 254 821 l 807 718 l 280 718 q 209 690 237 719 q 181 620 181 663 l 181 578 q 210 507 181 536 q 280 479 238 480 l 678 479 q 809 425 755 480 q 863 295 863 372 l 863 184 q 809 54 863 109 q 678 0 755 0 l 97 0 l 97 102 l 652 102 q 723 131 694 102 q 751 201 751 159 l 751 274 q 722 345 751 317 q 652 372 694 373 l 254 372 q 123 427 178 372 q 68 557 68 481 l 68 636 q 123 767 68 713 q 254 821 178 821 z "},"T":{"ha":858,"x_min":38,"x_max":822,"o":"m 38 821 l 822 821 l 822 725 l 486 725 l 486 0 l 373 0 l 373 725 l 38 725 l 38 821 z "},"U":{"ha":1027,"x_min":88,"x_max":937,"o":"m 88 821 l 201 821 l 201 200 q 229 130 202 157 q 300 102 258 102 l 726 102 q 796 130 769 102 q 824 200 825 157 l 824 821 l 937 821 l 937 185 q 883 54 937 109 q 752 0 829 0 l 273 0 q 142 54 197 0 q 88 185 88 109 l 88 821 z "},"V":{"ha":987,"x_min":30,"x_max":958,"o":"m 30 821 l 159 821 l 494 104 l 829 821 l 958 821 l 562 0 l 427 0 l 30 821 z "},"W":{"ha":1410,"x_min":31,"x_max":1382,"o":"m 31 821 l 153 821 l 400 146 l 646 800 l 765 800 l 1013 146 l 1261 821 l 1382 821 l 1074 0 l 958 0 l 705 668 l 455 0 l 339 0 l 31 821 z "},"X":{"ha":992,"x_min":56,"x_max":947,"o":"m 56 821 l 212 821 l 502 496 l 791 821 l 947 821 l 572 410 l 947 0 l 790 0 l 502 323 l 213 0 l 56 0 l 434 410 l 56 821 z "},"Y":{"ha":892,"x_min":28,"x_max":865,"o":"m 28 821 l 174 821 l 446 450 l 719 821 l 865 821 l 503 353 l 503 0 l 390 0 l 390 353 l 28 821 z "},"Z":{"ha":911,"x_min":64,"x_max":850,"o":"m 839 821 l 839 751 l 242 101 l 850 101 l 850 0 l 64 0 l 64 70 l 657 720 l 75 720 l 75 821 l 839 821 z "},"[":{"ha":429,"x_min":89,"x_max":369,"o":"m 201 719 l 201 -113 l 369 -113 l 369 -215 l 89 -215 l 89 821 l 369 821 l 369 719 l 201 719 z "},"\\":{"ha":558,"x_min":45,"x_max":533,"o":"m 151 821 l 533 0 l 427 0 l 45 821 l 151 821 z "},"]":{"ha":418,"x_min":50,"x_max":330,"o":"m 217 719 l 50 719 l 50 821 l 330 821 l 330 -215 l 50 -215 l 50 -113 l 218 -113 l 217 719 z "},"^":{"ha":642,"x_min":39,"x_max":605,"o":"m 319 703 l 152 444 l 39 445 l 283 821 l 361 821 l 605 445 l 492 444 l 319 703 z "},"_":{"ha":816,"x_min":99,"x_max":715,"o":"m 715 -21 l 715 -119 l 100 -119 l 99 -21 l 715 -21 z "},"`":{"ha":423,"x_min":50,"x_max":381,"o":"m 164 877 l 381 672 l 336 609 l 50 821 l 164 877 z "},"a":{"ha":777,"x_min":74,"x_max":690,"o":"m 690 0 l 254 0 q 126 47 179 0 q 74 161 74 95 l 74 444 q 127 558 74 511 q 254 605 180 606 l 690 605 l 690 0 m 581 98 l 581 506 l 279 506 q 210 481 238 506 q 183 420 184 457 q 183 184 183 420 q 210 123 184 147 q 279 98 238 98 l 581 98 z "},"b":{"ha":789,"x_min":95,"x_max":711,"o":"m 95 875 l 204 875 l 204 605 l 531 605 q 659 557 606 605 q 711 444 711 511 q 711 161 711 444 q 658 47 711 94 q 531 0 606 0 l 95 0 l 95 875 m 516 506 l 204 506 l 204 98 l 506 98 q 574 123 548 98 q 602 184 602 147 l 602 419 q 577 480 602 454 q 516 506 553 507 z "},"c":{"ha":715,"x_min":75,"x_max":637,"o":"m 254 605 q 637 605 254 605 l 637 506 l 279 506 q 210 481 237 505 q 183 420 183 458 l 183 184 q 210 123 183 147 q 279 98 237 98 l 637 98 l 637 0 l 254 0 q 127 47 180 0 q 75 161 75 95 l 75 444 q 127 558 75 511 q 254 605 180 606 z "},"d":{"ha":781,"x_min":73,"x_max":688,"o":"m 688 875 l 688 0 l 252 0 q 125 47 178 0 q 73 161 73 94 l 73 444 q 125 557 73 511 q 252 605 178 605 l 579 605 l 579 875 l 688 875 m 267 506 q 206 480 231 507 q 182 419 182 454 l 182 184 q 209 123 182 147 q 277 98 237 98 l 579 98 l 579 506 l 267 506 z "},"e":{"ha":770,"x_min":78,"x_max":694,"o":"m 256 605 q 515 605 256 605 q 642 557 590 605 q 694 444 694 511 l 694 246 l 186 246 l 186 136 q 203 106 186 118 q 242 94 219 95 q 640 94 242 94 l 640 0 l 223 0 q 120 36 163 0 q 78 123 78 73 l 78 246 l 78 444 q 130 558 78 511 q 256 605 183 605 m 282 507 q 214 482 242 507 q 186 421 186 458 l 186 344 l 585 344 l 585 421 q 557 483 584 458 q 490 507 530 507 l 282 507 z "},"f":{"ha":545,"x_min":90,"x_max":476,"o":"m 269 875 q 476 875 269 875 l 476 777 l 284 777 q 223 751 248 777 q 199 690 199 726 l 199 605 l 476 605 l 476 507 l 199 507 l 199 0 l 90 0 l 90 714 q 142 828 90 781 q 269 875 195 875 z "},"g":{"ha":777,"x_min":74,"x_max":690,"o":"m 254 605 q 690 605 254 605 l 690 -75 q 637 -189 690 -141 q 510 -235 585 -235 l 129 -235 l 129 -138 l 495 -138 q 556 -112 532 -138 q 581 -51 581 -85 l 581 0 l 254 0 q 126 47 179 0 q 74 161 74 95 l 74 445 q 127 558 74 511 q 254 605 180 605 m 279 507 q 210 483 238 507 q 183 422 184 458 l 183 184 q 208 123 183 150 q 269 98 232 98 q 581 98 499 99 l 581 507 l 279 507 z "},"h":{"ha":794,"x_min":95,"x_max":711,"o":"m 95 875 l 204 875 l 204 605 l 531 605 q 659 557 606 605 q 711 444 711 511 l 711 0 l 602 0 l 602 421 q 577 482 602 456 q 516 507 553 508 l 204 507 l 204 0 l 95 0 l 95 875 z "},"i":{"ha":297,"x_min":96,"x_max":204,"o":"m 96 875 l 204 875 l 204 714 l 96 714 l 96 875 m 96 605 l 204 605 l 204 0 l 96 0 l 96 605 z "},"j":{"ha":500,"x_min":12,"x_max":406,"o":"m 297 875 l 406 875 l 406 714 l 297 714 l 297 875 m 297 605 l 406 605 l 406 -75 q 353 -189 406 -141 q 227 -235 301 -235 l 12 -235 l 12 -138 l 212 -138 q 273 -112 248 -138 q 297 -51 297 -85 l 297 605 z "},"k":{"ha":705,"x_min":95,"x_max":671,"o":"m 95 875 l 204 875 l 204 352 l 505 605 l 667 605 l 335 320 l 671 0 l 517 0 l 254 250 l 204 207 l 204 0 l 95 0 l 95 875 z "},"l":{"ha":296,"x_min":95,"x_max":203,"o":"m 95 875 l 203 875 l 203 0 l 95 0 l 95 875 z "},"m":{"ha":1183,"x_min":85,"x_max":1098,"o":"m 264 605 q 463 605 264 605 q 540 583 501 606 q 591 528 578 562 q 644 583 604 562 q 722 605 684 606 l 920 605 q 1046 557 994 605 q 1098 444 1098 511 l 1098 0 l 988 0 q 988 420 988 391 q 961 482 988 458 q 894 507 935 507 l 741 507 q 673 483 702 507 q 646 425 645 460 l 646 0 l 536 0 l 536 425 q 509 484 536 461 q 441 507 482 507 l 290 507 q 221 482 249 507 q 194 420 194 458 q 194 0 195 45 l 85 0 l 85 444 q 138 557 85 511 q 264 605 191 605 z "},"n":{"ha":795,"x_min":85,"x_max":710,"o":"m 710 444 q 710 0 710 444 l 600 0 l 600 420 q 573 482 600 458 q 505 507 546 507 l 289 507 q 221 482 248 507 q 194 420 195 458 l 194 0 l 85 0 l 85 444 q 137 557 85 511 q 263 605 190 605 l 532 605 q 658 557 606 605 q 710 444 710 511 z "},"o":{"ha":804,"x_min":75,"x_max":724,"o":"m 254 605 q 545 605 254 605 q 672 557 620 605 q 724 444 724 511 l 724 161 q 671 47 724 94 q 545 0 619 0 l 254 0 q 127 47 180 0 q 75 161 75 95 l 75 444 q 127 558 75 511 q 254 605 180 606 m 279 506 q 211 481 239 506 q 184 420 184 456 l 184 184 q 211 123 184 147 q 279 98 239 98 l 519 98 q 588 123 562 98 q 615 184 615 147 l 615 420 q 588 481 615 457 q 519 506 562 506 l 279 506 z "},"p":{"ha":784,"x_min":89,"x_max":705,"o":"m 89 -235 l 89 605 l 525 605 q 652 558 600 606 q 705 444 705 511 l 705 161 q 652 47 705 95 q 525 0 600 0 l 198 0 l 198 -235 l 89 -235 m 510 98 q 571 124 547 98 q 595 185 595 151 l 595 421 q 568 482 595 458 q 500 507 542 507 l 198 507 l 198 98 l 510 98 z "},"q":{"ha":778,"x_min":74,"x_max":690,"o":"m 690 -235 l 581 -235 l 581 0 l 254 0 q 126 47 179 0 q 74 161 74 95 q 74 444 74 161 q 127 558 74 511 q 254 605 180 606 l 690 605 l 690 -235 m 269 98 l 581 98 l 581 507 l 279 507 q 210 482 238 507 q 183 421 184 458 l 183 185 q 208 124 183 151 q 269 98 232 98 z "},"r":{"ha":599,"x_min":85,"x_max":536,"o":"m 263 605 q 536 605 263 605 l 536 507 l 289 507 q 221 483 248 507 q 194 421 195 459 l 194 1 l 85 1 l 85 444 q 137 558 85 511 q 263 605 190 606 z "},"s":{"ha":745,"x_min":73,"x_max":671,"o":"m 218 605 q 616 605 218 605 l 616 512 l 237 512 q 196 498 212 512 q 181 465 181 486 l 181 401 q 197 366 181 380 q 237 353 212 353 l 526 353 q 629 317 587 353 q 671 229 671 280 l 671 123 q 628 36 671 73 q 526 0 586 0 l 100 0 l 100 92 l 507 92 q 547 106 532 92 q 562 140 563 119 l 562 217 q 547 251 562 239 q 507 264 533 264 l 218 264 q 115 300 158 264 q 73 388 73 337 l 73 481 q 115 569 73 532 q 218 605 158 606 z "},"t":{"ha":543,"x_min":82,"x_max":469,"o":"m 83 777 l 192 777 l 192 605 l 469 605 l 469 507 l 193 507 l 193 184 q 217 123 193 150 q 278 98 241 98 l 469 98 l 469 0 l 262 0 q 135 47 188 0 q 83 161 82 95 l 83 777 z "},"u":{"ha":788,"x_min":79,"x_max":705,"o":"m 705 161 q 652 47 705 95 q 526 0 601 0 l 258 0 q 132 47 184 0 q 79 161 79 94 l 79 605 l 189 605 l 189 184 q 216 123 189 147 q 283 98 243 98 l 500 98 q 568 122 541 98 q 595 184 595 146 l 595 605 l 705 605 l 705 161 z "},"v":{"ha":804,"x_min":37,"x_max":767,"o":"m 37 605 l 161 605 l 402 104 l 643 605 l 767 605 l 467 0 l 337 0 l 37 605 z "},"w":{"ha":1152,"x_min":41,"x_max":1107,"o":"m 41 605 l 158 605 l 338 149 l 516 605 l 632 605 l 810 149 l 990 605 l 1107 605 l 869 0 l 757 0 l 574 460 l 391 0 l 279 0 l 41 605 z "},"x":{"ha":813,"x_min":50,"x_max":771,"o":"m 50 605 l 203 605 l 410 385 l 618 605 l 771 605 l 486 302 l 771 0 l 618 0 l 410 220 l 203 0 l 50 0 l 334 302 l 50 605 z "},"y":{"ha":783,"x_min":79,"x_max":695,"o":"m 79 605 l 189 605 l 189 184 q 213 123 189 150 q 274 98 237 98 l 586 98 l 586 605 l 695 605 l 695 0 l 695 -75 q 642 -189 695 -141 q 515 -235 590 -235 l 134 -235 l 134 -138 l 500 -138 q 562 -112 537 -138 q 586 -51 586 -85 l 586 0 l 259 0 q 132 47 184 0 q 79 161 79 95 l 79 605 z "},"z":{"ha":716,"x_min":78,"x_max":638,"o":"m 78 508 l 78 605 l 638 605 l 638 484 l 242 98 l 638 98 l 638 0 l 78 0 l 78 98 l 507 508 l 78 508 z "},"{":{"ha":490,"x_min":30,"x_max":433,"o":"m 54 349 q 124 376 96 349 q 152 447 151 404 l 152 635 q 206 766 152 712 q 337 821 261 821 l 433 821 l 433 720 l 363 720 q 293 691 321 720 q 265 621 265 663 l 265 446 q 211 326 265 370 q 182 302 197 312 q 211 281 197 293 q 265 161 265 237 l 265 -15 q 293 -85 265 -58 q 363 -114 321 -114 l 433 -114 l 433 -215 l 337 -215 q 206 -161 261 -215 q 152 -30 152 -106 l 152 159 q 124 230 151 202 q 54 258 96 258 l 30 258 l 30 349 l 54 349 z "},"|":{"ha":289,"x_min":89,"x_max":201,"o":"m 201 821 l 201 -215 l 89 -215 l 89 821 l 201 821 z "},"}":{"ha":480,"x_min":50,"x_max":452,"o":"m 429 256 q 358 229 387 256 q 330 158 331 201 l 330 -31 q 276 -161 330 -107 q 145 -216 221 -216 l 50 -216 l 50 -115 l 119 -115 q 189 -86 161 -115 q 217 -16 217 -58 l 217 159 q 271 279 217 235 q 300 303 286 293 q 271 324 285 312 q 217 444 217 368 l 217 620 q 189 690 217 663 q 119 719 161 719 l 50 719 l 50 820 l 145 820 q 276 766 221 820 q 330 635 330 711 l 330 446 q 358 375 331 403 q 429 347 387 347 l 452 347 l 452 256 l 429 256 z "},"¨":{"ha":585,"x_min":79,"x_max":509,"o":"m 79 939 l 212 939 l 212 819 l 79 819 l 79 939 m 376 939 l 509 939 l 509 819 l 376 819 l 376 939 z "},"´":{"ha":379,"x_min":61,"x_max":318,"o":"m 318 1077 l 61 932 l 61 821 l 318 946 l 318 1077 z "},"¸":{"ha":416,"x_min":92,"x_max":324,"o":"m 190 0 l 324 0 l 168 -319 l 92 -281 l 190 0 z "},"À":{"ha":1044,"x_min":34,"x_max":948,"o":"m 424 821 l 559 821 l 948 0 l 822 0 l 704 252 l 279 252 l 161 0 l 34 0 l 424 821 m 491 707 l 326 355 l 655 355 l 491 707 m 363 1147 l 621 1002 l 621 891 l 363 1017 l 363 1147 z "},"Á":{"ha":1044,"x_min":34,"x_max":948,"o":"m 424 821 l 559 821 l 948 0 l 822 0 l 704 252 l 279 252 l 161 0 l 34 0 l 424 821 m 491 707 l 326 355 l 655 355 l 491 707 m 627 1147 l 370 1002 l 370 891 l 627 1017 l 627 1147 z "},"Â":{"ha":1043,"x_min":34,"x_max":948,"o":"m 424 821 l 559 821 l 948 0 l 822 0 l 704 252 l 279 252 l 161 0 l 34 0 l 424 821 m 491 707 l 326 355 l 655 355 l 491 707 m 492 1053 l 365 890 l 263 890 l 434 1129 l 551 1129 l 720 890 l 618 890 l 492 1053 z "},"Ã":{"ha":1044,"x_min":34,"x_max":948,"o":"m 424 821 l 559 821 l 948 0 l 822 0 l 704 252 l 279 252 l 161 0 l 34 0 l 424 821 m 491 707 l 326 355 l 655 355 l 491 707 m 614 1057 l 692 1057 l 692 977 q 663 915 692 941 q 589 890 635 890 q 489 930 546 890 q 402 970 432 970 q 374 920 374 970 l 374 890 l 296 890 l 296 970 q 324 1031 296 1006 q 399 1057 353 1057 q 499 1017 442 1057 q 586 977 555 977 q 614 1027 614 977 l 614 1057 z "},"Ä":{"ha":1044,"x_min":34,"x_max":948,"o":"m 424 821 l 559 821 l 948 0 l 822 0 l 704 252 l 279 252 l 161 0 l 34 0 l 424 821 m 491 707 l 326 355 l 655 355 l 491 707 m 275 1043 l 408 1043 l 408 924 l 275 924 l 275 1043 m 572 1043 l 705 1043 l 705 924 l 572 924 l 572 1043 z "},"Å":{"ha":1043,"x_min":34,"x_max":948,"o":"m 424 821 l 559 821 l 948 0 l 822 0 l 704 252 l 279 252 l 161 0 l 34 0 l 424 821 m 491 707 l 326 355 l 655 355 l 491 707 m 418 1187 q 562 1187 418 1187 q 625 1164 598 1187 q 650 1109 651 1141 l 650 968 q 624 913 650 936 q 562 890 598 890 l 418 890 q 356 913 382 890 q 330 968 330 936 l 330 1109 q 356 1164 330 1141 q 418 1187 382 1187 m 449 1109 q 425 1101 435 1109 q 416 1080 416 1093 l 416 998 q 425 977 416 985 q 449 969 435 969 l 531 969 q 555 977 545 969 q 564 998 565 985 l 564 1080 q 554 1101 564 1094 q 531 1109 545 1109 l 449 1109 z "},"Ç":{"ha":933,"x_min":76,"x_max":860,"o":"m 262 821 q 833 821 262 821 l 833 720 l 288 720 q 217 691 245 720 q 189 621 189 663 l 189 200 q 218 130 189 158 q 288 102 245 102 l 833 102 l 833 0 l 262 0 q 130 54 186 0 q 76 185 76 109 l 76 635 q 131 766 76 712 q 262 821 186 821 m 454 -52 l 588 -52 l 432 -372 l 355 -334 l 454 -52 z "},"È":{"ha":930,"x_min":75,"x_max":859,"o":"m 260 821 q 859 821 260 821 l 859 717 l 287 717 q 216 689 245 718 q 189 618 189 662 l 189 476 l 746 476 l 746 372 l 189 372 l 189 202 q 216 132 189 160 q 287 104 245 104 l 859 104 l 859 0 l 260 0 q 130 54 184 0 q 75 185 75 109 l 75 635 q 130 766 75 712 q 260 821 184 821 m 326 1147 l 583 1002 l 583 891 l 326 1017 l 326 1147 z "},"É":{"ha":930,"x_min":75,"x_max":859,"o":"m 260 821 q 859 821 260 821 l 859 717 l 287 717 q 216 689 245 718 q 189 618 189 662 l 189 476 l 746 476 l 746 372 l 189 372 l 189 202 q 216 132 189 160 q 287 104 245 104 l 859 104 l 859 0 l 260 0 q 130 54 184 0 q 75 185 75 109 l 75 635 q 130 766 75 712 q 260 821 184 821 m 625 1147 l 368 1002 l 368 891 l 625 1017 l 625 1147 z "},"Ê":{"ha":930,"x_min":75,"x_max":859,"o":"m 260 821 q 859 821 260 821 l 859 717 l 287 717 q 216 689 245 718 q 189 618 189 662 l 189 476 l 746 476 l 746 372 l 189 372 l 189 202 q 216 132 189 160 q 287 104 245 104 l 859 104 l 859 0 l 260 0 q 130 54 184 0 q 75 185 75 109 l 75 635 q 130 766 75 712 q 260 821 184 821 m 498 1053 l 371 890 l 269 890 l 440 1129 l 557 1129 l 726 890 l 625 890 l 498 1053 z "},"Ë":{"ha":931,"x_min":76,"x_max":860,"o":"m 261 821 q 860 821 261 821 l 860 717 l 288 717 q 217 689 245 718 q 189 618 190 662 l 189 476 l 747 476 l 747 372 l 189 372 l 189 202 q 217 132 190 160 q 288 104 245 104 l 860 104 l 860 0 l 261 0 q 130 54 185 0 q 76 185 76 109 l 76 635 q 130 766 76 712 q 261 821 185 821 m 274 1043 l 407 1043 l 407 924 l 274 924 l 274 1043 m 571 1043 l 704 1043 l 704 924 l 571 924 l 571 1043 z "},"Ì":{"ha":307,"x_min":18,"x_max":275,"o":"m 90 821 l 202 821 l 202 0 l 90 0 l 90 821 m 18 1147 l 275 1002 l 275 891 l 18 1017 l 18 1147 z "},"Í":{"ha":308,"x_min":25,"x_max":282,"o":"m 99 821 l 212 821 l 212 0 l 99 0 l 99 821 m 282 1147 l 25 1002 l 25 891 l 282 1017 l 282 1147 z "},"Î":{"ha":484,"x_min":34,"x_max":491,"o":"m 199 821 l 312 821 l 312 0 l 199 0 l 199 821 m 262 1053 l 136 890 l 34 890 l 205 1129 l 321 1129 l 491 890 l 389 890 l 262 1053 z "},"Ï":{"ha":460,"x_min":12,"x_max":441,"o":"m 170 821 l 282 821 l 282 0 l 170 0 l 170 821 m 12 869 l 144 869 l 144 750 l 12 750 l 12 869 m 309 869 l 441 869 l 441 750 l 309 750 l 309 869 z "},"Ñ":{"ha":1036,"x_min":92,"x_max":912,"o":"m 912 0 l 823 0 l 205 637 l 205 -1 l 92 -1 l 92 821 l 180 821 l 799 186 l 799 821 l 912 821 l 912 0 m 621 1058 l 699 1058 l 699 977 q 669 916 699 942 q 595 890 642 890 q 495 930 552 890 q 408 970 438 970 q 380 921 380 971 l 380 890 l 302 890 l 302 970 q 330 1032 302 1006 q 406 1058 359 1058 q 505 1018 448 1058 q 592 977 562 977 q 621 1028 621 977 l 621 1058 z "},"Ò":{"ha":1027,"x_min":75,"x_max":942,"o":"m 260 821 q 756 821 260 821 q 888 766 833 821 q 942 635 942 712 l 942 185 q 887 54 942 109 q 756 0 833 0 l 260 0 q 130 54 184 0 q 75 185 75 109 l 75 635 q 130 766 75 712 q 260 821 184 821 m 287 720 q 216 691 245 720 q 189 621 189 663 l 189 200 q 216 130 189 157 q 287 102 245 102 l 730 102 q 801 130 772 102 q 829 200 829 159 l 829 621 q 800 691 829 663 q 730 720 772 720 l 287 720 m 367 1147 l 624 1002 l 624 891 l 367 1017 l 367 1147 z "},"Ó":{"ha":1027,"x_min":75,"x_max":942,"o":"m 260 821 q 756 821 260 821 q 888 766 833 821 q 942 635 942 712 l 942 185 q 887 54 942 109 q 756 0 833 0 l 260 0 q 130 54 184 0 q 75 185 75 109 l 75 635 q 130 766 75 712 q 260 821 184 821 m 287 720 q 216 691 245 720 q 189 621 189 663 l 189 200 q 216 130 189 157 q 287 102 245 102 l 730 102 q 801 130 772 102 q 829 200 829 159 l 829 621 q 800 691 829 663 q 730 720 772 720 l 287 720 m 639 1147 l 382 1002 l 382 891 l 639 1017 l 639 1147 z "},"Ô":{"ha":1027,"x_min":75,"x_max":942,"o":"m 260 821 q 756 821 260 821 q 888 766 833 821 q 942 635 942 712 l 942 185 q 887 54 942 109 q 756 0 833 0 l 260 0 q 130 54 184 0 q 75 185 75 109 l 75 635 q 130 766 75 712 q 260 821 184 821 m 287 720 q 216 691 245 720 q 189 621 189 663 l 189 200 q 216 130 189 157 q 287 102 245 102 l 730 102 q 801 130 772 102 q 829 200 829 159 l 829 621 q 800 691 829 663 q 730 720 772 720 l 287 720 m 515 1053 l 389 890 l 287 890 l 458 1129 l 574 1129 l 744 890 l 642 890 l 515 1053 z "},"Õ":{"ha":1027,"x_min":75,"x_max":942,"o":"m 260 821 q 756 821 260 821 q 888 766 833 821 q 942 635 942 712 l 942 185 q 887 54 942 109 q 756 0 833 0 l 260 0 q 130 54 184 0 q 75 185 75 109 l 75 635 q 130 766 75 712 q 260 821 184 821 m 287 720 q 216 691 245 720 q 189 621 189 663 l 189 200 q 216 130 189 157 q 287 102 245 102 l 730 102 q 801 130 772 102 q 829 200 829 159 l 829 621 q 800 691 829 663 q 730 720 772 720 l 287 720 m 587 1057 l 665 1057 l 665 977 q 636 915 665 941 q 562 890 608 890 q 462 930 519 890 q 375 970 405 970 q 347 920 347 970 l 347 890 l 269 890 l 269 970 q 297 1031 269 1006 q 372 1057 326 1057 q 472 1017 415 1057 q 559 977 528 977 q 587 1027 587 977 l 587 1057 z "},"Ö":{"ha":1028,"x_min":76,"x_max":943,"o":"m 261 821 q 757 821 261 821 q 888 766 834 821 q 943 635 943 712 l 943 185 q 888 54 943 109 q 757 0 833 0 l 261 0 q 130 54 185 0 q 76 185 76 109 l 76 635 q 130 766 76 712 q 261 821 185 821 m 288 720 q 217 691 245 720 q 189 621 190 663 l 189 200 q 217 130 190 157 q 288 102 245 102 l 730 102 q 802 130 773 102 q 829 200 830 159 l 829 621 q 801 691 829 663 q 730 720 773 720 l 288 720 m 295 1043 l 428 1043 l 428 924 l 295 924 l 295 1043 m 592 1043 l 725 1043 l 725 924 l 592 924 l 592 1043 z "},"Ù":{"ha":1025,"x_min":83,"x_max":932,"o":"m 83 821 l 196 821 l 196 200 q 224 130 197 157 q 294 102 252 102 l 720 102 q 791 130 764 102 q 819 200 819 157 l 819 821 l 932 821 l 932 185 q 878 54 932 109 q 747 0 823 0 l 268 0 q 137 54 192 0 q 83 185 83 109 l 83 821 m 368 1147 l 625 1002 l 625 891 l 368 1017 l 368 1147 z "},"Ú":{"ha":1025,"x_min":83,"x_max":932,"o":"m 83 821 l 196 821 l 196 200 q 224 130 197 157 q 294 102 252 102 l 720 102 q 791 130 764 102 q 819 200 819 157 l 819 821 l 932 821 l 932 185 q 878 54 932 109 q 747 0 823 0 l 268 0 q 137 54 192 0 q 83 185 83 109 l 83 821 m 643 1147 l 386 1002 l 386 891 l 643 1017 l 643 1147 z "},"Û":{"ha":1025,"x_min":83,"x_max":932,"o":"m 83 821 l 196 821 l 196 200 q 224 130 197 157 q 294 102 252 102 l 720 102 q 791 130 764 102 q 819 200 819 157 l 819 821 l 932 821 l 932 185 q 878 54 932 109 q 747 0 823 0 l 268 0 q 137 54 192 0 q 83 185 83 109 l 83 821 m 516 1053 l 389 890 l 288 890 l 458 1129 l 575 1129 l 745 890 l 643 890 l 516 1053 z "},"Ü":{"ha":1025,"x_min":83,"x_max":932,"o":"m 83 821 l 196 821 l 196 200 q 224 130 197 157 q 294 102 252 102 l 720 102 q 791 130 764 102 q 819 200 819 157 l 819 821 l 932 821 l 932 185 q 878 54 932 109 q 747 0 823 0 l 268 0 q 137 54 192 0 q 83 185 83 109 l 83 821 m 288 1043 l 421 1043 l 421 924 l 288 924 l 288 1043 m 585 1043 l 718 1043 l 718 924 l 585 924 l 585 1043 z "},"Ý":{"ha":946,"x_min":20,"x_max":916,"o":"m 20 821 l 165 821 l 438 450 l 711 821 l 857 821 l 494 353 l 494 0 l 382 0 l 382 353 l 20 821 m 606 1147 l 349 1002 l 349 891 l 606 1017 l 606 1147 z "},"ß":{"ha":740,"x_min":90,"x_max":665,"o":"m 292 0 l 292 96 l 448 96 q 547 168 548 96 l 547 330 q 448 401 548 401 l 292 401 l 292 502 l 388 502 q 487 574 487 502 l 487 648 q 388 724 487 724 l 306 724 q 207 648 207 724 l 207 0 l 90 0 l 90 674 q 142 784 90 747 q 275 821 193 821 l 418 821 q 552 783 501 821 q 604 674 604 747 l 604 591 q 578 496 604 526 q 490 467 552 467 q 625 429 586 467 q 665 343 665 391 l 665 146 q 612 37 665 75 q 479 0 562 0 l 292 0 z "},"à":{"ha":773,"x_min":71,"x_max":687,"o":"m 687 0 l 251 0 q 123 47 176 0 q 71 161 71 95 l 71 444 q 124 558 71 511 q 251 605 177 606 l 687 605 l 687 0 m 578 98 l 578 506 l 276 506 q 208 481 235 506 q 180 420 181 457 q 180 184 180 420 q 208 123 181 147 q 276 98 235 98 l 578 98 m 258 932 l 515 787 l 515 676 l 258 802 l 258 932 z "},"á":{"ha":773,"x_min":71,"x_max":687,"o":"m 687 0 l 251 0 q 123 47 176 0 q 71 161 71 95 l 71 444 q 124 558 71 511 q 251 605 177 606 l 687 605 l 687 0 m 578 98 l 578 506 l 276 506 q 208 481 235 506 q 180 420 181 457 q 180 184 180 420 q 208 123 181 147 q 276 98 235 98 l 578 98 m 541 932 l 283 787 l 283 676 l 541 802 l 541 932 z "},"â":{"ha":772,"x_min":71,"x_max":687,"o":"m 687 0 l 251 0 q 123 47 176 0 q 71 161 71 95 l 71 444 q 124 558 71 511 q 251 605 177 606 l 687 605 l 687 0 m 578 98 l 578 506 l 276 506 q 208 481 235 506 q 180 420 181 457 q 180 184 180 420 q 208 123 181 147 q 276 98 235 98 l 578 98 m 405 838 l 278 675 l 176 675 l 347 914 l 464 914 l 633 675 l 532 675 l 405 838 z "},"ã":{"ha":774,"x_min":72,"x_max":688,"o":"m 688 0 l 252 0 q 124 47 177 0 q 72 161 72 95 l 72 444 q 125 558 72 511 q 252 605 178 606 l 688 605 l 688 0 m 578 98 l 578 506 l 277 506 q 208 481 236 506 q 181 420 182 457 q 181 184 181 420 q 208 123 182 147 q 277 98 236 98 l 578 98 m 519 842 l 597 842 l 597 762 q 568 700 597 726 q 494 675 541 675 q 394 715 451 675 q 307 755 337 755 q 279 705 279 755 l 279 675 l 201 675 l 201 755 q 229 817 201 791 q 304 842 258 842 q 404 802 347 842 q 491 762 460 762 q 519 812 519 762 l 519 842 z "},"ä":{"ha":774,"x_min":72,"x_max":688,"o":"m 688 0 l 252 0 q 124 47 177 0 q 72 161 72 95 l 72 444 q 125 558 72 511 q 252 605 178 606 l 688 605 l 688 0 m 578 98 l 578 506 l 277 506 q 208 481 236 506 q 181 420 182 457 q 181 184 181 420 q 208 123 182 147 q 277 98 236 98 l 578 98 m 186 828 l 319 828 l 319 709 l 186 709 l 186 828 m 484 828 l 616 828 l 616 709 l 484 709 l 484 828 z "},"å":{"ha":772,"x_min":71,"x_max":687,"o":"m 687 0 l 251 0 q 123 47 176 0 q 71 161 71 95 l 71 444 q 124 558 71 511 q 251 605 177 606 l 687 605 l 687 0 m 578 98 l 578 506 l 276 506 q 208 481 235 506 q 180 420 181 457 q 180 184 180 420 q 208 123 181 147 q 276 98 235 98 l 578 98 m 322 972 q 466 972 322 972 q 528 949 502 972 q 554 894 555 926 l 554 753 q 528 698 554 721 q 466 675 502 675 l 322 675 q 260 698 286 675 q 234 753 234 721 l 234 894 q 260 949 234 926 q 322 972 286 972 m 353 894 q 329 886 339 894 q 319 865 319 878 l 319 783 q 329 762 319 770 q 353 754 339 754 l 435 754 q 458 762 449 754 q 467 783 469 770 l 467 865 q 458 886 468 879 q 435 894 449 894 l 353 894 z "},"ç":{"ha":714,"x_min":75,"x_max":637,"o":"m 254 605 q 637 605 254 605 l 637 506 l 279 506 q 210 481 237 505 q 183 420 183 458 l 183 184 q 210 123 183 147 q 279 98 237 98 l 637 98 l 637 0 l 254 0 q 127 47 180 0 q 75 161 75 95 l 75 444 q 127 558 75 511 q 254 605 180 606 m 329 -51 l 463 -51 l 307 -370 l 231 -332 l 329 -51 z "},"è":{"ha":766,"x_min":77,"x_max":693,"o":"m 256 605 q 515 605 256 605 q 641 557 589 605 q 693 444 693 511 l 693 246 l 186 246 l 186 136 q 202 106 186 118 q 241 94 218 95 q 639 94 241 94 l 639 0 l 222 0 q 119 36 163 0 q 77 123 77 73 l 77 246 l 77 444 q 130 558 77 511 q 256 605 182 605 m 281 507 q 213 482 241 507 q 186 421 186 458 l 186 344 l 584 344 l 584 421 q 556 483 583 458 q 489 507 530 507 l 281 507 m 239 932 l 496 787 l 496 675 l 239 801 l 239 932 z "},"é":{"ha":765,"x_min":77,"x_max":692,"o":"m 255 605 q 514 605 255 605 q 640 557 589 605 q 692 444 692 511 l 692 246 l 185 246 l 185 136 q 201 106 185 118 q 241 94 218 95 q 638 94 241 94 l 638 0 l 222 0 q 119 36 162 0 q 77 123 77 73 l 77 246 l 77 444 q 129 558 77 511 q 255 605 182 605 m 281 507 q 212 482 241 507 q 185 421 185 458 l 185 344 l 583 344 l 583 421 q 555 483 583 458 q 488 507 529 507 l 281 507 m 521 932 l 264 787 l 264 675 l 521 801 l 521 932 z "},"ê":{"ha":765,"x_min":77,"x_max":692,"o":"m 255 605 q 514 605 255 605 q 640 557 589 605 q 692 444 692 511 l 692 246 l 185 246 l 185 136 q 201 106 185 118 q 241 94 218 95 q 638 94 241 94 l 638 0 l 222 0 q 119 36 162 0 q 77 123 77 73 l 77 246 l 77 444 q 129 558 77 511 q 255 605 182 605 m 281 507 q 212 482 241 507 q 185 421 185 458 l 185 344 l 583 344 l 583 421 q 555 483 583 458 q 488 507 529 507 l 281 507 m 387 838 l 260 675 l 159 675 l 330 913 l 446 913 l 616 675 l 514 675 l 387 838 z "},"ë":{"ha":766,"x_min":78,"x_max":694,"o":"m 256 605 q 515 605 256 605 q 642 557 590 605 q 694 444 694 511 l 694 246 l 186 246 l 186 136 q 203 106 186 118 q 242 94 219 95 q 640 94 242 94 l 640 0 l 223 0 q 120 36 163 0 q 78 123 78 73 l 78 246 l 78 444 q 130 558 78 511 q 256 605 183 605 m 282 507 q 214 482 242 507 q 186 421 186 458 l 186 344 l 585 344 l 585 421 q 557 483 584 458 q 490 507 530 507 l 282 507 m 171 827 l 304 827 l 304 708 l 171 708 l 171 827 m 468 827 l 601 827 l 601 708 l 468 708 l 468 827 z "},"ì":{"ha":339,"x_min":42,"x_max":299,"o":"m 113 605 l 221 605 l 221 0 l 113 0 l 113 605 m 42 932 l 299 787 l 299 676 l 42 802 l 42 932 z "},"í":{"ha":351,"x_min":71,"x_max":328,"o":"m 140 605 l 249 605 l 249 0 l 140 0 l 140 605 m 328 932 l 71 787 l 71 676 l 328 802 l 328 932 z "},"î":{"ha":523,"x_min":23,"x_max":480,"o":"m 194 605 l 302 605 l 302 0 l 194 0 l 194 605 m 252 838 l 125 675 l 23 675 l 194 914 l 311 914 l 480 675 l 378 675 l 252 838 z "},"ï":{"ha":514,"x_min":31,"x_max":461,"o":"m 184 605 l 293 605 l 293 0 l 184 0 l 184 605 m 31 828 l 164 828 l 164 709 l 31 709 l 31 828 m 328 828 l 461 828 l 461 709 l 328 709 l 328 828 z "},"ñ":{"ha":791,"x_min":83,"x_max":708,"o":"m 708 444 q 708 0 708 444 l 598 0 l 598 420 q 571 482 598 458 q 503 507 544 507 l 287 507 q 219 482 246 507 q 192 420 193 458 l 192 0 l 83 0 l 83 444 q 135 557 83 511 q 261 605 188 605 l 530 605 q 656 557 604 605 q 708 444 708 511 m 505 842 l 583 842 l 583 762 q 554 700 583 726 q 479 675 526 675 q 380 715 437 675 q 293 755 323 755 q 264 705 264 755 l 264 675 l 186 675 l 186 755 q 215 817 186 791 q 290 842 244 842 q 390 802 333 842 q 477 762 446 762 q 505 812 505 762 l 505 842 z "},"ò":{"ha":799,"x_min":72,"x_max":722,"o":"m 251 605 q 543 605 251 605 q 669 557 617 605 q 722 444 722 511 l 722 161 q 669 47 722 94 q 543 0 616 0 l 251 0 q 124 47 178 0 q 72 161 72 95 l 72 444 q 125 558 72 511 q 251 605 178 606 m 277 506 q 208 481 236 506 q 181 420 182 456 l 181 184 q 208 123 182 147 q 277 98 236 98 l 517 98 q 585 123 559 98 q 612 184 612 147 l 612 420 q 585 481 612 457 q 517 506 559 506 l 277 506 m 252 933 l 509 788 l 509 677 l 252 802 l 252 933 z "},"ó":{"ha":799,"x_min":72,"x_max":722,"o":"m 251 605 q 543 605 251 605 q 669 557 617 605 q 722 444 722 511 l 722 161 q 669 47 722 94 q 543 0 616 0 l 251 0 q 124 47 178 0 q 72 161 72 95 l 72 444 q 125 558 72 511 q 251 605 178 606 m 277 506 q 208 481 236 506 q 181 420 182 456 l 181 184 q 208 123 182 147 q 277 98 236 98 l 517 98 q 585 123 559 98 q 612 184 612 147 l 612 420 q 585 481 612 457 q 517 506 559 506 l 277 506 m 541 933 l 283 788 l 283 677 l 541 802 l 541 933 z "},"ô":{"ha":799,"x_min":72,"x_max":722,"o":"m 251 605 q 543 605 251 605 q 669 557 617 605 q 722 444 722 511 l 722 161 q 669 47 722 94 q 543 0 616 0 l 251 0 q 124 47 178 0 q 72 161 72 95 l 72 444 q 125 558 72 511 q 251 605 178 606 m 277 506 q 208 481 236 506 q 181 420 182 456 l 181 184 q 208 123 182 147 q 277 98 236 98 l 517 98 q 585 123 559 98 q 612 184 612 147 l 612 420 q 585 481 612 457 q 517 506 559 506 l 277 506 m 400 839 l 273 676 l 172 676 l 342 915 l 459 915 l 629 676 l 527 676 l 400 839 z "},"õ":{"ha":800,"x_min":73,"x_max":722,"o":"m 252 605 q 543 605 252 605 q 670 557 618 605 q 722 444 722 511 l 722 161 q 669 47 722 94 q 543 0 617 0 l 252 0 q 125 47 178 0 q 73 161 73 95 l 73 444 q 125 558 73 511 q 252 605 178 606 m 277 506 q 209 481 237 506 q 182 420 182 456 l 182 184 q 209 123 182 147 q 277 98 237 98 l 517 98 q 586 123 559 98 q 613 184 613 147 l 613 420 q 586 481 613 457 q 517 506 559 506 l 277 506 m 513 843 l 591 843 l 591 762 q 562 701 591 727 q 488 675 534 675 q 388 715 445 675 q 301 755 331 755 q 273 706 273 756 l 273 675 l 195 675 l 195 755 q 223 817 195 791 q 298 843 252 843 q 398 803 341 843 q 485 762 454 762 q 513 813 513 762 l 513 843 z "},"ö":{"ha":800,"x_min":73,"x_max":722,"o":"m 252 605 q 543 605 252 605 q 670 557 618 605 q 722 444 722 511 l 722 161 q 669 47 722 94 q 543 0 617 0 l 252 0 q 125 47 178 0 q 73 161 73 95 l 73 444 q 125 558 73 511 q 252 605 178 606 m 277 506 q 209 481 237 506 q 182 420 182 456 l 182 184 q 209 123 182 147 q 277 98 237 98 l 517 98 q 586 123 559 98 q 613 184 613 147 l 613 420 q 586 481 613 457 q 517 506 559 506 l 277 506 m 180 829 l 313 829 l 313 709 l 180 709 l 180 829 m 477 829 l 610 829 l 610 709 l 477 709 l 477 829 z "},"ù":{"ha":784,"x_min":75,"x_max":700,"o":"m 700 161 q 648 47 700 95 q 522 0 596 0 l 253 0 q 127 47 180 0 q 75 161 75 94 l 75 605 l 184 605 l 184 184 q 211 123 184 147 q 279 98 238 98 l 495 98 q 563 122 536 98 q 590 184 590 146 l 590 605 l 700 605 l 700 161 m 245 932 l 503 787 l 503 676 l 245 802 l 245 932 z "},"ú":{"ha":785,"x_min":75,"x_max":700,"o":"m 700 161 q 648 47 700 95 q 522 0 596 0 l 253 0 q 127 47 180 0 q 75 161 75 94 l 75 605 l 184 605 l 184 184 q 211 123 184 147 q 279 98 238 98 l 495 98 q 563 122 536 98 q 590 184 590 146 l 590 605 l 700 605 l 700 161 m 524 932 l 267 787 l 267 676 l 524 802 l 524 932 z "},"û":{"ha":784,"x_min":75,"x_max":700,"o":"m 700 161 q 648 47 700 95 q 522 0 596 0 l 253 0 q 127 47 180 0 q 75 161 75 94 l 75 605 l 184 605 l 184 184 q 211 123 184 147 q 279 98 238 98 l 495 98 q 563 122 536 98 q 590 184 590 146 l 590 605 l 700 605 l 700 161 m 394 838 l 267 675 l 165 675 l 336 914 l 453 914 l 623 675 l 521 675 l 394 838 z "},"ü":{"ha":785,"x_min":75,"x_max":701,"o":"m 701 161 q 648 47 701 95 q 522 0 597 0 l 254 0 q 127 47 180 0 q 75 161 75 94 l 75 605 l 184 605 l 184 184 q 212 123 185 147 q 279 98 239 98 l 496 98 q 564 122 536 98 q 591 184 591 146 l 591 605 l 701 605 l 701 161 m 174 828 l 307 828 l 307 709 l 174 709 l 174 828 m 471 828 l 604 828 l 604 709 l 471 709 l 471 828 z "},"ý":{"ha":779,"x_min":74,"x_max":690,"o":"m 74 605 l 183 605 l 183 184 q 208 123 183 150 q 269 98 232 98 l 581 98 l 581 605 l 690 605 l 690 0 l 690 -75 q 637 -189 690 -141 q 510 -235 585 -235 l 129 -235 l 129 -138 l 495 -138 q 556 -112 532 -138 q 581 -51 581 -85 l 581 0 l 254 0 q 126 47 179 0 q 74 161 74 95 l 74 605 m 522 932 l 265 787 l 265 675 l 522 801 l 522 932 z "},"ÿ":{"ha":780,"x_min":75,"x_max":691,"o":"m 75 605 l 184 605 l 184 184 q 209 123 184 150 q 270 98 233 98 l 582 98 l 582 605 l 691 605 l 691 0 l 691 -75 q 638 -189 691 -141 q 511 -235 586 -235 l 130 -235 l 130 -138 l 496 -138 q 557 -112 533 -138 q 582 -51 582 -85 l 582 0 l 255 0 q 127 47 180 0 q 75 161 75 95 l 75 605 m 169 827 l 302 827 l 302 708 l 169 708 l 169 827 m 466 827 l 599 827 l 599 708 l 466 708 l 466 827 z "},"Ā":{"ha":1044,"x_min":34,"x_max":948,"o":"m 424 821 l 559 821 l 948 0 l 822 0 l 704 252 l 279 252 l 161 0 l 34 0 l 424 821 m 491 707 l 326 355 l 655 355 l 491 707 m 230 1002 l 768 1002 l 768 907 l 230 907 l 230 1002 z "},"ā":{"ha":777,"x_min":74,"x_max":690,"o":"m 690 0 l 254 0 q 126 47 179 0 q 74 161 74 95 l 74 444 q 127 558 74 511 q 254 605 180 606 l 690 605 l 690 0 m 581 98 l 581 506 l 279 506 q 210 481 238 506 q 183 420 184 457 q 183 184 183 420 q 210 123 184 147 q 279 98 238 98 l 581 98 m 119 787 l 656 787 l 656 692 l 119 692 l 119 787 z "},"Ă":{"ha":1043,"x_min":34,"x_max":948,"o":"m 424 821 l 559 821 l 948 0 l 822 0 l 704 252 l 279 252 l 161 0 l 34 0 l 424 821 m 491 707 l 326 355 l 655 355 l 491 707 m 600 1086 l 699 1086 l 699 999 q 663 922 699 954 q 577 890 627 890 l 401 890 q 315 922 351 890 q 279 999 279 954 l 279 1086 l 376 1086 l 376 1032 q 395 998 376 1010 q 439 984 413 984 l 541 984 q 584 998 566 984 q 600 1032 602 1010 l 600 1086 z "},"ă":{"ha":773,"x_min":72,"x_max":688,"o":"m 688 0 l 252 0 q 124 47 177 0 q 72 161 72 95 l 72 444 q 125 558 72 511 q 252 605 178 606 l 688 605 l 688 0 m 578 98 l 578 506 l 277 506 q 208 481 236 506 q 181 420 182 457 q 181 184 181 420 q 208 123 182 147 q 277 98 236 98 l 578 98 m 501 871 l 600 871 l 600 784 q 564 707 600 739 q 478 675 528 675 l 302 675 q 216 707 252 675 q 180 784 180 739 l 180 871 l 277 871 l 277 817 q 296 783 277 795 q 340 769 314 769 l 442 769 q 485 783 467 769 q 501 817 503 795 l 501 871 z "},"Ć":{"ha":932,"x_min":75,"x_max":859,"o":"m 261 821 q 832 821 261 821 l 832 720 l 288 720 q 216 691 245 720 q 189 621 188 663 l 189 200 q 217 130 189 158 q 288 102 245 102 l 832 102 l 832 0 l 261 0 q 130 54 185 0 q 75 185 75 109 l 75 635 q 130 766 75 712 q 261 821 185 821 m 618 1147 l 361 1002 l 361 891 l 618 1017 l 618 1147 z "},"ć":{"ha":710,"x_min":73,"x_max":635,"o":"m 252 605 q 635 605 252 605 l 635 506 l 277 506 q 208 481 235 505 q 181 420 181 458 l 181 184 q 208 123 181 147 q 277 98 235 98 l 635 98 l 635 0 l 252 0 q 125 47 178 0 q 73 161 73 95 l 73 444 q 125 558 73 511 q 252 605 178 606 m 518 933 l 261 788 l 261 677 l 518 802 l 518 933 z "},"Ĉ":{"ha":931,"x_min":75,"x_max":859,"o":"m 261 821 q 832 821 261 821 l 832 720 l 288 720 q 216 691 245 720 q 189 621 188 663 l 189 200 q 217 130 189 158 q 288 102 245 102 l 832 102 l 832 0 l 261 0 q 130 54 185 0 q 75 185 75 109 l 75 635 q 130 766 75 712 q 261 821 185 821 m 474 1053 l 347 890 l 245 890 l 416 1129 l 533 1129 l 703 890 l 601 890 l 474 1053 z "},"ĉ":{"ha":708,"x_min":72,"x_max":635,"o":"m 251 605 q 635 605 251 605 l 635 506 l 276 506 q 208 481 235 505 q 180 420 180 458 l 180 184 q 208 123 180 147 q 276 98 235 98 l 635 98 l 635 0 l 251 0 q 124 47 178 0 q 72 161 72 95 l 72 444 q 125 558 72 511 q 251 605 178 606 m 357 839 l 230 676 l 128 676 l 299 915 l 416 915 l 585 676 l 484 676 l 357 839 z "},"Č":{"ha":932,"x_min":75,"x_max":859,"o":"m 261 821 q 832 821 261 821 l 832 720 l 288 720 q 216 691 245 720 q 189 621 188 663 l 189 200 q 217 130 189 158 q 288 102 245 102 l 832 102 l 832 0 l 261 0 q 130 54 185 0 q 75 185 75 109 l 75 635 q 130 766 75 712 q 261 821 185 821 m 492 967 l 619 1130 l 721 1130 l 550 891 l 433 891 l 264 1130 l 366 1130 l 492 967 z "},"č":{"ha":710,"x_min":73,"x_max":636,"o":"m 252 605 q 636 605 252 605 l 636 506 l 277 506 q 209 481 236 505 q 182 420 182 458 l 182 184 q 209 123 182 147 q 277 98 236 98 l 636 98 l 636 0 l 252 0 q 125 47 179 0 q 73 161 73 95 l 73 444 q 126 558 73 511 q 252 605 179 606 m 373 753 l 500 916 l 602 916 l 431 677 l 314 677 l 144 916 l 246 916 l 373 753 z "},"Ď":{"ha":1026,"x_min":92,"x_max":941,"o":"m 92 821 l 747 821 q 878 766 824 821 q 932 635 932 712 l 932 185 q 878 54 932 109 q 747 0 823 0 l 92 0 l 92 821 m 205 720 l 205 102 l 720 102 q 791 130 763 102 q 819 200 820 159 q 819 621 819 200 q 791 691 819 663 q 720 720 763 720 l 205 720 m 487 967 l 614 1130 l 715 1130 l 545 891 l 428 891 l 258 1130 l 360 1130 l 487 967 z "},"ď":{"ha":881,"x_min":71,"x_max":892,"o":"m 687 821 l 687 0 l 251 0 q 124 47 177 0 q 71 161 71 94 l 71 444 q 123 557 71 511 q 251 605 176 605 l 578 605 l 578 821 l 687 821 m 266 506 q 205 480 229 507 q 180 419 180 454 l 180 184 q 208 123 181 147 q 276 98 235 98 l 578 98 l 578 506 l 266 506 m 768 821 l 892 821 l 833 501 l 768 501 l 768 821 z "},"Ē":{"ha":931,"x_min":76,"x_max":860,"o":"m 261 821 q 860 821 261 821 l 860 717 l 288 717 q 217 689 245 718 q 189 618 190 662 l 189 476 l 747 476 l 747 372 l 189 372 l 189 202 q 217 132 190 160 q 288 104 245 104 l 860 104 l 860 0 l 261 0 q 130 54 185 0 q 76 185 76 109 l 76 635 q 130 766 76 712 q 261 821 185 821 m 218 1002 l 755 1002 l 755 907 l 218 907 l 218 1002 z "},"ē":{"ha":768,"x_min":78,"x_max":694,"o":"m 256 605 q 515 605 256 605 q 642 557 590 605 q 694 444 694 511 l 694 246 l 186 246 l 186 136 q 203 106 186 118 q 242 94 219 95 q 640 94 242 94 l 640 0 l 223 0 q 120 36 163 0 q 78 123 78 73 l 78 246 l 78 444 q 130 558 78 511 q 256 605 183 605 m 282 507 q 214 482 242 507 q 186 421 186 458 l 186 344 l 585 344 l 585 421 q 557 483 584 458 q 490 507 530 507 l 282 507 m 118 786 l 656 786 l 656 691 l 118 691 l 118 786 z "},"Ĕ":{"ha":930,"x_min":75,"x_max":859,"o":"m 260 821 q 859 821 260 821 l 859 717 l 287 717 q 216 689 245 718 q 189 618 189 662 l 189 476 l 746 476 l 746 372 l 189 372 l 189 202 q 216 132 189 160 q 287 104 245 104 l 859 104 l 859 0 l 260 0 q 130 54 184 0 q 75 185 75 109 l 75 635 q 130 766 75 712 q 260 821 184 821 m 595 1086 l 694 1086 l 694 999 q 657 922 694 954 q 572 890 622 890 l 396 890 q 309 922 345 890 q 273 999 273 954 l 273 1086 l 371 1086 l 371 1032 q 389 998 371 1010 q 433 984 408 984 l 536 984 q 578 998 561 984 q 595 1032 596 1010 l 595 1086 z "},"ĕ":{"ha":765,"x_min":77,"x_max":692,"o":"m 255 605 q 514 605 255 605 q 640 557 589 605 q 692 444 692 511 l 692 246 l 185 246 l 185 136 q 201 106 185 118 q 241 94 218 95 q 638 94 241 94 l 638 0 l 222 0 q 119 36 162 0 q 77 123 77 73 l 77 246 l 77 444 q 129 558 77 511 q 255 605 182 605 m 281 507 q 212 482 241 507 q 185 421 185 458 l 185 344 l 583 344 l 583 421 q 555 483 583 458 q 488 507 529 507 l 281 507 m 488 870 l 587 870 l 587 783 q 550 706 587 739 q 465 674 515 674 l 289 674 q 202 706 238 674 q 166 783 166 739 l 166 870 l 264 870 l 264 817 q 282 782 264 795 q 326 768 300 768 l 429 768 q 471 782 454 768 q 488 817 489 795 l 488 870 z "},"Ě":{"ha":930,"x_min":75,"x_max":859,"o":"m 260 821 q 859 821 260 821 l 859 717 l 287 717 q 216 689 245 718 q 189 618 189 662 l 189 476 l 746 476 l 746 372 l 189 372 l 189 202 q 216 132 189 160 q 287 104 245 104 l 859 104 l 859 0 l 260 0 q 130 54 184 0 q 75 185 75 109 l 75 635 q 130 766 75 712 q 260 821 184 821 m 479 967 l 606 1130 l 707 1130 l 536 891 l 420 891 l 250 1130 l 352 1130 l 479 967 z "},"ě":{"ha":765,"x_min":77,"x_max":692,"o":"m 255 605 q 514 605 255 605 q 640 557 589 605 q 692 444 692 511 l 692 246 l 185 246 l 185 136 q 201 106 185 118 q 241 94 218 95 q 638 94 241 94 l 638 0 l 222 0 q 119 36 162 0 q 77 123 77 73 l 77 246 l 77 444 q 129 558 77 511 q 255 605 182 605 m 281 507 q 212 482 241 507 q 185 421 185 458 l 185 344 l 583 344 l 583 421 q 555 483 583 458 q 488 507 529 507 l 281 507 m 372 751 l 498 914 l 600 914 l 429 675 l 313 675 l 143 914 l 245 914 l 372 751 z "},"Ĝ":{"ha":1005,"x_min":75,"x_max":924,"o":"m 260 821 q 867 821 260 821 l 867 720 l 287 720 q 216 692 245 720 q 189 621 189 665 l 189 200 q 216 130 189 157 q 287 102 245 102 l 712 102 q 783 130 755 102 q 811 200 812 159 l 811 351 l 613 351 l 613 452 l 924 452 l 924 184 q 869 54 924 109 q 739 0 815 0 l 260 0 q 130 54 184 0 q 75 184 75 109 l 75 635 q 130 766 75 712 q 260 821 184 821 m 500 1053 l 373 890 l 271 890 l 442 1129 l 559 1129 l 728 890 l 627 890 l 500 1053 z "},"ĝ":{"ha":772,"x_min":71,"x_max":687,"o":"m 251 605 q 687 605 251 605 l 687 -75 q 634 -189 687 -141 q 507 -235 582 -235 l 126 -235 l 126 -138 l 492 -138 q 553 -112 529 -138 q 578 -51 578 -85 l 578 0 l 251 0 q 123 47 176 0 q 71 161 71 95 l 71 445 q 124 558 71 511 q 251 605 177 605 m 276 507 q 208 483 235 507 q 180 422 181 458 l 180 184 q 205 123 180 150 q 266 98 229 98 q 578 98 496 99 l 578 507 l 276 507 m 383 838 l 256 675 l 155 675 l 326 913 l 442 913 l 612 675 l 510 675 l 383 838 z "},"Ğ":{"ha":1005,"x_min":75,"x_max":924,"o":"m 260 821 q 867 821 260 821 l 867 720 l 287 720 q 216 692 245 720 q 189 621 189 665 l 189 200 q 216 130 189 157 q 287 102 245 102 l 712 102 q 783 130 755 102 q 811 200 812 159 l 811 351 l 613 351 l 613 452 l 924 452 l 924 184 q 869 54 924 109 q 739 0 815 0 l 260 0 q 130 54 184 0 q 75 184 75 109 l 75 635 q 130 766 75 712 q 260 821 184 821 m 593 1086 l 692 1086 l 692 999 q 656 922 692 954 q 570 890 621 890 l 395 890 q 308 922 344 890 q 272 999 272 954 l 272 1086 l 370 1086 l 370 1032 q 388 998 370 1010 q 432 984 406 984 l 534 984 q 577 998 559 984 q 593 1032 595 1010 l 593 1086 z "},"ğ":{"ha":773,"x_min":71,"x_max":687,"o":"m 251 605 q 687 605 251 605 l 687 -75 q 634 -189 687 -141 q 507 -235 582 -235 l 126 -235 l 126 -138 l 492 -138 q 553 -112 529 -138 q 578 -51 578 -85 l 578 0 l 251 0 q 123 47 176 0 q 71 161 71 95 l 71 445 q 124 558 71 511 q 251 605 177 605 m 276 507 q 208 483 235 507 q 180 422 181 458 l 180 184 q 205 123 180 150 q 266 98 229 98 q 578 98 496 99 l 578 507 l 276 507 m 507 870 l 606 870 l 606 783 q 570 706 606 739 q 484 674 534 674 l 309 674 q 222 706 258 674 q 186 783 186 739 l 186 870 l 283 870 l 283 817 q 302 782 283 795 q 346 768 320 768 l 448 768 q 491 782 473 768 q 507 817 509 795 l 507 870 z "},"Ģ":{"ha":1006,"x_min":76,"x_max":925,"o":"m 261 821 q 868 821 261 821 l 868 720 l 288 720 q 217 692 245 720 q 189 621 190 665 l 189 200 q 217 130 190 157 q 288 102 245 102 l 713 102 q 784 130 755 102 q 812 200 812 159 l 812 351 l 614 351 l 614 452 l 925 452 l 925 184 q 870 54 925 109 q 739 0 816 0 l 261 0 q 130 54 185 0 q 76 184 76 109 l 76 635 q 130 766 76 712 q 261 821 185 821 m 412 -68 l 547 -68 l 391 -387 l 314 -349 l 412 -68 z "},"ģ":{"ha":777,"x_min":74,"x_max":690,"o":"m 254 605 q 690 605 254 605 l 690 -75 q 637 -189 690 -141 q 510 -235 585 -235 l 129 -235 l 129 -138 l 495 -138 q 556 -112 532 -138 q 581 -51 581 -85 l 581 0 l 254 0 q 126 47 179 0 q 74 161 74 95 l 74 445 q 127 558 74 511 q 254 605 180 605 m 279 507 q 210 483 238 507 q 183 422 184 458 l 183 184 q 208 123 183 150 q 269 98 232 98 q 581 98 499 99 l 581 507 l 279 507 m 365 998 l 499 998 l 343 678 l 267 716 l 365 998 z "},"Ĥ":{"ha":970,"x_min":92,"x_max":876,"o":"m 92 821 l 205 821 l 205 476 l 749 476 l 749 821 l 862 821 l 862 0 l 749 0 l 749 372 l 205 372 l 205 0 l 92 0 l 92 821 m 490 1053 l 363 890 l 262 890 l 433 1129 l 549 1129 l 719 890 l 617 890 l 490 1053 z "},"ĥ":{"ha":793,"x_min":92,"x_max":707,"o":"m 92 875 l 201 875 l 201 605 l 528 605 q 655 557 603 605 q 707 444 707 511 l 707 0 l 598 0 l 598 421 q 574 482 598 456 q 513 507 549 508 l 201 507 l 201 0 l 92 0 l 92 875 m 396 1053 l 269 890 l 168 890 l 338 1129 l 455 1129 l 625 890 l 523 890 l 396 1053 z "},"Ĩ":{"ha":427,"x_min":19,"x_max":416,"o":"m 159 821 l 271 821 l 271 0 l 159 0 l 159 821 m 338 1057 l 416 1057 l 416 977 q 387 915 416 941 q 312 890 359 890 q 212 930 269 890 q 125 970 155 970 q 97 920 97 970 l 97 890 l 19 890 l 19 970 q 47 1031 19 1006 q 123 1057 77 1057 q 222 1017 165 1057 q 309 977 279 977 q 338 1027 338 977 l 338 1057 z "},"ĩ":{"ha":427,"x_min":19,"x_max":416,"o":"m 157 605 l 266 605 l 266 0 l 157 0 l 157 605 m 338 842 l 416 842 l 416 762 q 387 700 416 726 q 312 675 359 675 q 212 715 269 675 q 125 755 155 755 q 97 705 97 755 l 97 675 l 19 675 l 19 755 q 47 817 19 791 q 123 842 77 842 q 222 802 165 842 q 309 762 279 762 q 338 812 338 762 l 338 842 z "},"Ī":{"ha":567,"x_min":19,"x_max":557,"o":"m 223 821 l 336 821 l 336 0 l 223 0 l 223 821 m 19 828 l 557 828 l 557 733 l 19 733 l 19 828 z "},"ī":{"ha":618,"x_min":39,"x_max":576,"o":"m 238 605 l 347 605 l 347 0 l 238 0 l 238 605 m 39 787 l 576 787 l 576 692 l 39 692 l 39 787 z "},"Ĭ":{"ha":450,"x_min":26,"x_max":447,"o":"m 184 821 l 297 821 l 297 0 l 184 0 l 184 821 m 348 1086 l 447 1086 l 447 999 q 410 922 447 954 q 325 890 375 890 l 149 890 q 62 922 98 890 q 26 999 26 954 l 26 1086 l 124 1086 l 124 1032 q 142 998 124 1010 q 186 984 161 984 l 289 984 q 332 998 314 984 q 348 1032 349 1010 l 348 1086 z "},"ĭ":{"ha":492,"x_min":42,"x_max":463,"o":"m 199 605 l 307 605 l 307 0 l 199 0 l 199 605 m 363 871 l 463 871 l 463 784 q 426 707 463 739 q 340 675 391 675 l 165 675 q 78 707 114 675 q 42 784 42 739 l 42 871 l 140 871 l 140 817 q 158 783 140 795 q 202 769 176 769 l 304 769 q 347 783 330 769 q 363 817 365 795 l 363 871 z "},"ı":{"ha":284,"x_min":89,"x_max":197,"o":"m 89 605 l 197 605 l 197 0 l 89 0 l 89 605 z "},"Ĵ":{"ha":809,"x_min":91,"x_max":783,"o":"m 91 0 l 91 102 l 402 102 q 473 130 445 102 q 500 200 500 157 l 500 821 l 613 821 l 613 185 q 559 54 613 109 q 429 0 505 0 l 91 0 m 555 1053 l 428 890 l 326 890 l 497 1129 l 614 1129 l 783 890 l 682 890 l 555 1053 z "},"ĵ":{"ha":551,"x_min":57,"x_max":619,"o":"m 342 605 l 452 605 l 452 -54 q 399 -168 452 -121 q 273 -215 347 -215 l 57 -215 l 57 -117 l 257 -117 q 318 -92 294 -117 q 342 -31 342 -65 l 342 605 m 391 839 l 264 676 l 162 676 l 333 915 l 450 915 l 619 676 l 517 676 l 391 839 z "},"Ķ":{"ha":909,"x_min":92,"x_max":876,"o":"m 92 821 l 205 821 l 205 393 l 656 821 l 827 821 l 406 437 l 844 0 l 678 0 l 320 362 l 205 264 l 205 0 l 92 0 l 92 821 m 364 -68 l 498 -68 l 342 -387 l 266 -349 l 364 -68 z "},"ķ":{"ha":705,"x_min":92,"x_max":669,"o":"m 92 875 l 201 875 l 201 352 l 503 605 l 665 605 l 332 320 l 669 0 l 514 0 l 252 250 l 201 207 l 201 0 l 92 0 l 92 875 m 286 -68 l 420 -68 l 264 -387 l 187 -349 l 286 -68 z "},"Ĺ":{"ha":926,"x_min":22,"x_max":867,"o":"m 268 0 q 137 54 192 0 q 83 185 83 109 l 83 821 l 196 821 l 196 200 q 224 130 197 157 q 294 102 252 102 l 803 102 l 803 0 l 268 0 m 332 1147 l 75 1002 l 75 891 l 332 1017 l 332 1147 z "},"ĺ":{"ha":304,"x_min":24,"x_max":281,"o":"m 100 875 l 208 875 l 208 0 l 100 0 l 100 875 m 281 1147 l 24 1002 l 24 891 l 281 1017 l 281 1147 z "},"Ļ":{"ha":929,"x_min":83,"x_max":804,"o":"m 269 0 q 138 54 193 0 q 83 185 83 109 l 83 821 l 197 821 l 197 200 q 224 130 197 157 q 295 102 253 102 l 804 102 l 804 0 l 269 0 m 414 -61 l 548 -61 l 392 -380 l 315 -342 l 414 -61 z "},"ļ":{"ha":290,"x_min":-26,"x_max":206,"o":"m 86 875 l 195 875 l 195 0 l 86 0 l 86 875 m 245 -68 l 380 -68 l 224 -387 l 147 -349 l 245 -68 z "},"Ľ":{"ha":926,"x_min":83,"x_max":803,"o":"m 268 0 q 137 54 192 0 q 83 185 83 109 l 83 821 l 196 821 l 196 200 q 224 130 197 157 q 294 102 252 102 l 803 102 l 803 0 l 268 0 m 467 967 l 593 1130 l 695 1130 l 524 891 l 408 891 l 238 1130 l 340 1130 l 467 967 z "},"ľ":{"ha":410,"x_min":96,"x_max":410,"o":"m 96 821 l 204 821 l 204 0 l 96 0 l 96 821 m 286 821 l 410 821 l 351 501 l 286 501 l 286 821 z "},"Ń":{"ha":1036,"x_min":92,"x_max":912,"o":"m 912 0 l 823 0 l 205 637 l 205 -1 l 92 -1 l 92 821 l 180 821 l 799 186 l 799 821 l 912 821 l 912 0 m 621 1148 l 363 1003 l 363 892 l 621 1017 l 621 1148 z "},"ń":{"ha":792,"x_min":83,"x_max":709,"o":"m 709 444 q 709 0 709 444 l 599 0 l 599 420 q 572 482 599 458 q 504 507 545 507 l 288 507 q 220 482 247 507 q 193 420 193 458 l 193 0 l 83 0 l 83 444 q 136 557 83 511 q 262 605 189 605 l 530 605 q 656 557 605 605 q 709 444 709 511 m 524 932 l 267 787 l 267 676 l 524 802 l 524 932 z "},"Ņ":{"ha":1037,"x_min":92,"x_max":913,"o":"m 913 0 l 824 0 l 205 637 l 205 -1 l 92 -1 l 92 821 l 181 821 l 800 186 l 800 821 l 913 821 l 913 0 m 433 -70 l 567 -70 l 411 -389 l 334 -351 l 433 -70 z "},"ņ":{"ha":794,"x_min":85,"x_max":710,"o":"m 710 444 q 710 0 710 444 l 600 0 l 600 420 q 573 482 600 458 q 505 507 546 507 l 289 507 q 221 482 248 507 q 194 420 195 458 l 194 0 l 85 0 l 85 444 q 137 557 85 511 q 263 605 190 605 l 532 605 q 658 557 606 605 q 710 444 710 511 m 347 -69 l 481 -69 l 325 -389 l 248 -351 l 347 -69 z "},"Ň":{"ha":1036,"x_min":92,"x_max":912,"o":"m 912 0 l 823 0 l 205 637 l 205 -1 l 92 -1 l 92 821 l 180 821 l 799 186 l 799 821 l 912 821 l 912 0 m 495 968 l 622 1131 l 724 1131 l 553 892 l 436 892 l 267 1131 l 368 1131 l 495 968 z "},"ň":{"ha":792,"x_min":83,"x_max":709,"o":"m 709 444 q 709 0 709 444 l 599 0 l 599 420 q 572 482 599 458 q 504 507 545 507 l 288 507 q 220 482 247 507 q 193 420 193 458 l 193 0 l 83 0 l 83 444 q 136 557 83 511 q 262 605 189 605 l 530 605 q 656 557 605 605 q 709 444 709 511 m 395 752 l 522 915 l 623 915 l 452 676 l 336 676 l 166 915 l 268 915 l 395 752 z "},"Ō":{"ha":1028,"x_min":76,"x_max":943,"o":"m 261 821 q 757 821 261 821 q 888 766 834 821 q 943 635 943 712 l 943 185 q 888 54 943 109 q 757 0 833 0 l 261 0 q 130 54 185 0 q 76 185 76 109 l 76 635 q 130 766 76 712 q 261 821 185 821 m 288 720 q 217 691 245 720 q 189 621 190 663 l 189 200 q 217 130 190 157 q 288 102 245 102 l 730 102 q 802 130 773 102 q 829 200 830 159 l 829 621 q 801 691 829 663 q 730 720 773 720 l 288 720 m 249 1002 l 787 1002 l 787 907 l 249 907 l 249 1002 z "},"ō":{"ha":801,"x_min":73,"x_max":723,"o":"m 252 605 q 544 605 252 605 q 671 557 618 605 q 723 444 723 511 l 723 161 q 670 47 723 94 q 544 0 618 0 l 252 0 q 125 47 179 0 q 73 161 73 95 l 73 444 q 126 558 73 511 q 252 605 179 606 m 278 506 q 210 481 237 506 q 182 420 183 456 l 182 184 q 210 123 183 147 q 278 98 237 98 l 518 98 q 587 123 560 98 q 614 184 614 147 l 614 420 q 587 481 614 457 q 518 506 560 506 l 278 506 m 134 787 l 672 787 l 672 692 l 134 692 l 134 787 z "},"Ŏ":{"ha":1027,"x_min":75,"x_max":942,"o":"m 260 821 q 756 821 260 821 q 888 766 833 821 q 942 635 942 712 l 942 185 q 887 54 942 109 q 756 0 833 0 l 260 0 q 130 54 184 0 q 75 185 75 109 l 75 635 q 130 766 75 712 q 260 821 184 821 m 287 720 q 216 691 245 720 q 189 621 189 663 l 189 200 q 216 130 189 157 q 287 102 245 102 l 730 102 q 801 130 772 102 q 829 200 829 159 l 829 621 q 800 691 829 663 q 730 720 772 720 l 287 720 m 609 1086 l 708 1086 l 708 999 q 671 922 708 954 q 586 890 636 890 l 410 890 q 323 922 359 890 q 288 999 288 954 l 288 1086 l 385 1086 l 385 1032 q 404 998 385 1010 q 448 984 422 984 l 550 984 q 593 998 575 984 q 609 1032 610 1010 l 609 1086 z "},"ŏ":{"ha":800,"x_min":73,"x_max":722,"o":"m 252 605 q 543 605 252 605 q 670 557 618 605 q 722 444 722 511 l 722 161 q 669 47 722 94 q 543 0 617 0 l 252 0 q 125 47 178 0 q 73 161 73 95 l 73 444 q 125 558 73 511 q 252 605 178 606 m 277 506 q 209 481 237 506 q 182 420 182 456 l 182 184 q 209 123 182 147 q 277 98 237 98 l 517 98 q 586 123 559 98 q 613 184 613 147 l 613 420 q 586 481 613 457 q 517 506 559 506 l 277 506 m 501 871 l 600 871 l 600 785 q 564 707 600 740 q 478 675 528 675 l 302 675 q 216 707 252 675 q 180 785 180 740 l 180 871 l 277 871 l 277 818 q 296 783 277 796 q 340 770 314 770 l 442 770 q 485 783 467 770 q 501 818 503 796 l 501 871 z "},"Ŕ":{"ha":993,"x_min":92,"x_max":905,"o":"m 204 720 l 204 442 l 654 442 q 726 471 697 442 q 753 541 753 499 q 753 621 753 541 q 725 691 753 663 q 654 720 696 720 l 204 720 m 545 340 l 204 340 l 204 0 l 92 0 l 92 821 l 681 821 q 812 766 758 821 q 866 635 866 712 l 866 525 q 812 394 866 449 q 681 340 758 340 l 662 340 l 864 -1 l 738 -1 l 545 340 m 595 1147 l 338 1002 l 338 891 l 595 1017 l 595 1147 z "},"ŕ":{"ha":599,"x_min":89,"x_max":541,"o":"m 267 605 q 541 605 267 605 l 541 507 l 293 507 q 225 483 252 507 q 198 421 199 459 l 198 1 l 89 1 l 89 444 q 141 558 89 511 q 267 605 194 606 m 452 933 l 195 788 l 195 677 l 452 802 l 452 933 z "},"Ŗ":{"ha":994,"x_min":92,"x_max":905,"o":"m 205 720 l 205 442 l 655 442 q 726 471 698 442 q 754 541 754 499 q 754 621 754 541 q 726 691 754 663 q 655 720 697 720 l 205 720 m 545 340 l 205 340 l 205 0 l 92 0 l 92 821 l 682 821 q 812 766 758 821 q 867 635 867 712 l 867 525 q 812 394 867 449 q 682 340 758 340 l 663 340 l 865 -1 l 739 -1 l 545 340 m 417 -69 l 551 -69 l 395 -389 l 319 -351 l 417 -69 z "},"ŗ":{"ha":598,"x_min":-25,"x_max":536,"o":"m 263 605 q 536 605 263 605 l 536 507 l 289 507 q 221 483 248 507 q 194 421 195 459 l 194 1 l 85 1 l 85 444 q 137 558 85 511 q 263 605 190 606 m 73 -68 l 208 -68 l 52 -388 l -25 -350 l 73 -68 z "},"Ř":{"ha":993,"x_min":92,"x_max":905,"o":"m 204 720 l 204 442 l 654 442 q 726 471 697 442 q 753 541 753 499 q 753 621 753 541 q 725 691 753 663 q 654 720 696 720 l 204 720 m 545 340 l 204 340 l 204 0 l 92 0 l 92 821 l 681 821 q 812 766 758 821 q 866 635 866 712 l 866 525 q 812 394 866 449 q 681 340 758 340 l 662 340 l 864 -1 l 738 -1 l 545 340 m 469 967 l 596 1130 l 698 1130 l 527 891 l 410 891 l 241 1130 l 342 1130 l 469 967 z "},"ř":{"ha":597,"x_min":87,"x_max":564,"o":"m 265 605 q 538 605 265 605 l 538 507 l 291 507 q 223 483 250 507 q 196 421 197 459 l 196 1 l 87 1 l 87 444 q 139 558 87 511 q 265 605 192 606 m 335 753 l 462 916 l 564 916 l 393 677 l 276 677 l 106 916 l 208 916 l 335 753 z "},"Ś":{"ha":948,"x_min":62,"x_max":871,"o":"m 248 821 q 801 821 248 821 l 801 718 l 274 718 q 203 690 231 719 q 175 620 175 663 l 175 578 q 203 507 175 536 q 274 479 232 480 l 672 479 q 803 425 749 480 q 857 295 857 372 l 857 184 q 803 54 857 109 q 672 0 749 0 l 91 0 l 91 102 l 646 102 q 717 131 688 102 q 745 201 745 159 l 745 274 q 716 345 745 317 q 646 372 688 373 l 248 372 q 117 427 172 372 q 62 557 62 481 l 62 636 q 117 767 62 713 q 248 821 172 821 m 612 1148 l 355 1003 l 355 892 l 612 1017 l 612 1148 z "},"ś":{"ha":739,"x_min":67,"x_max":665,"o":"m 212 605 q 611 605 212 605 l 611 512 l 231 512 q 191 498 207 512 q 176 465 176 486 l 176 401 q 191 366 176 380 q 231 353 207 353 l 520 353 q 623 317 581 353 q 665 229 665 280 l 665 123 q 623 36 665 73 q 520 0 581 0 l 94 0 l 94 92 l 501 92 q 542 106 527 92 q 557 140 557 119 l 557 217 q 542 251 557 239 q 502 264 528 264 l 212 264 q 109 300 153 264 q 67 388 67 337 l 67 481 q 110 569 67 532 q 212 605 153 606 m 496 933 l 239 788 l 239 677 l 496 802 l 496 933 z "},"Ŝ":{"ha":948,"x_min":62,"x_max":871,"o":"m 248 821 q 801 821 248 821 l 801 718 l 274 718 q 203 690 231 719 q 175 620 175 663 l 175 578 q 203 507 175 536 q 274 479 232 480 l 672 479 q 803 425 749 480 q 857 295 857 372 l 857 184 q 803 54 857 109 q 672 0 749 0 l 91 0 l 91 102 l 646 102 q 717 131 688 102 q 745 201 745 159 l 745 274 q 716 345 745 317 q 646 372 688 373 l 248 372 q 117 427 172 372 q 62 557 62 481 l 62 636 q 117 767 62 713 q 248 821 172 821 m 475 1054 l 349 891 l 247 891 l 418 1130 l 534 1130 l 704 891 l 602 891 l 475 1054 z "},"ŝ":{"ha":739,"x_min":66,"x_max":665,"o":"m 212 605 q 610 605 212 605 l 610 512 l 231 512 q 190 498 206 512 q 175 465 175 486 l 175 401 q 191 366 175 380 q 231 353 206 353 l 519 353 q 623 317 581 353 q 665 229 665 280 l 665 123 q 622 36 665 73 q 519 0 580 0 l 94 0 l 94 92 l 500 92 q 541 106 526 92 q 556 140 557 119 l 556 217 q 541 251 556 239 q 501 264 527 264 l 212 264 q 109 300 152 264 q 66 388 66 337 l 66 481 q 109 569 66 532 q 212 605 152 606 m 372 839 l 245 676 l 143 676 l 314 915 l 431 915 l 600 676 l 498 676 l 372 839 z "},"Ş":{"ha":949,"x_min":63,"x_max":871,"o":"m 248 821 q 802 821 248 821 l 802 718 l 275 718 q 203 690 232 719 q 176 620 176 663 l 176 578 q 204 507 176 536 q 275 479 233 480 l 673 479 q 804 425 749 480 q 858 295 858 372 l 858 184 q 804 54 858 109 q 673 0 749 0 l 92 0 l 92 102 l 646 102 q 718 131 689 102 q 745 201 745 159 l 745 274 q 717 345 745 317 q 646 372 688 373 l 248 372 q 117 427 172 372 q 63 557 63 481 l 63 636 q 117 767 63 713 q 248 821 172 821 m 370 -69 l 505 -69 l 349 -389 l 272 -351 l 370 -69 z "},"ş":{"ha":744,"x_min":70,"x_max":668,"o":"m 215 605 q 614 605 215 605 l 614 512 l 234 512 q 193 498 210 512 q 178 465 178 486 l 178 401 q 194 366 178 380 q 234 353 210 353 l 523 353 q 626 317 584 353 q 668 229 668 280 l 668 123 q 625 36 668 73 q 523 0 583 0 l 97 0 l 97 92 l 504 92 q 545 106 530 92 q 559 140 560 119 l 559 217 q 545 251 559 239 q 505 264 530 264 l 215 264 q 112 300 155 264 q 70 388 70 337 l 70 481 q 113 569 70 532 q 215 605 155 606 m 266 -69 l 400 -69 l 244 -389 l 168 -351 l 266 -69 z "},"Š":{"ha":948,"x_min":62,"x_max":871,"o":"m 248 821 q 801 821 248 821 l 801 718 l 274 718 q 203 690 231 719 q 175 620 175 663 l 175 578 q 203 507 175 536 q 274 479 232 480 l 672 479 q 803 425 749 480 q 857 295 857 372 l 857 184 q 803 54 857 109 q 672 0 749 0 l 91 0 l 91 102 l 646 102 q 717 131 688 102 q 745 201 745 159 l 745 274 q 716 345 745 317 q 646 372 688 373 l 248 372 q 117 427 172 372 q 62 557 62 481 l 62 636 q 117 767 62 713 q 248 821 172 821 m 470 968 l 597 1131 l 699 1131 l 528 892 l 411 892 l 241 1131 l 343 1131 l 470 968 z "},"š":{"ha":739,"x_min":67,"x_max":665,"o":"m 212 605 q 611 605 212 605 l 611 512 l 231 512 q 191 498 207 512 q 176 465 176 486 l 176 401 q 191 366 176 380 q 231 353 207 353 l 520 353 q 623 317 581 353 q 665 229 665 280 l 665 123 q 623 36 665 73 q 520 0 581 0 l 94 0 l 94 92 l 501 92 q 542 106 527 92 q 557 140 557 119 l 557 217 q 542 251 557 239 q 502 264 528 264 l 212 264 q 109 300 153 264 q 67 388 67 337 l 67 481 q 110 569 67 532 q 212 605 153 606 m 363 753 l 490 916 l 592 916 l 421 677 l 304 677 l 135 916 l 237 916 l 363 753 z "},"Ţ":{"ha":858,"x_min":29,"x_max":813,"o":"m 29 821 l 813 821 l 813 725 l 477 725 l 477 0 l 364 0 l 364 725 l 29 725 l 29 821 m 352 -69 l 486 -69 l 330 -389 l 254 -351 l 352 -69 z "},"ţ":{"ha":543,"x_min":79,"x_max":466,"o":"m 79 777 l 189 777 l 189 605 l 466 605 l 466 507 l 189 507 l 189 184 q 214 123 189 150 q 275 98 238 98 l 466 98 l 466 0 l 258 0 q 132 47 184 0 q 79 161 79 95 l 79 777 m 201 -69 l 335 -69 l 179 -389 l 102 -351 l 201 -69 z "},"Ť":{"ha":856,"x_min":28,"x_max":812,"o":"m 28 821 l 812 821 l 812 725 l 477 725 l 477 0 l 363 0 l 363 725 l 28 725 l 28 821 m 421 967 l 548 1130 l 650 1130 l 479 891 l 362 891 l 193 1130 l 294 1130 l 421 967 z "},"ť":{"ha":531,"x_min":79,"x_max":467,"o":"m 80 722 l 189 722 l 189 605 l 467 605 l 467 507 l 190 507 l 190 184 q 214 123 190 150 q 275 98 239 98 l 467 98 l 467 0 l 259 0 q 132 47 185 0 q 80 161 79 95 l 80 722 m 271 1006 l 394 1006 l 336 686 l 270 686 l 271 1006 z "},"Ũ":{"ha":1025,"x_min":83,"x_max":932,"o":"m 83 821 l 196 821 l 196 200 q 224 130 197 157 q 294 102 252 102 l 720 102 q 791 130 764 102 q 819 200 819 157 l 819 821 l 932 821 l 932 185 q 878 54 932 109 q 747 0 823 0 l 268 0 q 137 54 192 0 q 83 185 83 109 l 83 821 m 639 1057 l 717 1057 l 717 977 q 688 915 717 941 q 613 890 660 890 q 513 930 570 890 q 427 970 456 970 q 398 920 398 970 l 398 890 l 320 890 l 320 970 q 349 1031 320 1006 q 424 1057 378 1057 q 524 1017 467 1057 q 610 977 580 977 q 639 1027 639 977 l 639 1057 z "},"ũ":{"ha":785,"x_min":75,"x_max":701,"o":"m 701 161 q 648 47 701 95 q 522 0 597 0 l 254 0 q 127 47 180 0 q 75 161 75 94 l 75 605 l 184 605 l 184 184 q 212 123 185 147 q 279 98 239 98 l 496 98 q 564 122 536 98 q 591 184 591 146 l 591 605 l 701 605 l 701 161 m 511 842 l 589 842 l 589 762 q 559 700 589 726 q 485 675 532 675 q 385 715 442 675 q 298 755 328 755 q 270 705 270 755 l 270 675 l 192 675 l 192 755 q 220 817 192 791 q 296 842 250 842 q 395 802 338 842 q 482 762 452 762 q 511 812 511 762 l 511 842 z "},"Ū":{"ha":1025,"x_min":83,"x_max":932,"o":"m 83 821 l 196 821 l 196 200 q 224 130 197 157 q 294 102 252 102 l 720 102 q 791 130 764 102 q 819 200 819 157 l 819 821 l 932 821 l 932 185 q 878 54 932 109 q 747 0 823 0 l 268 0 q 137 54 192 0 q 83 185 83 109 l 83 821 m 249 1002 l 787 1002 l 787 907 l 249 907 l 249 1002 z "},"ū":{"ha":787,"x_min":76,"x_max":701,"o":"m 701 161 q 649 47 701 95 q 523 0 597 0 l 254 0 q 128 47 181 0 q 76 161 76 94 l 76 605 l 185 605 l 185 184 q 212 123 186 147 q 280 98 239 98 l 496 98 q 564 122 537 98 q 591 184 591 146 l 591 605 l 701 605 l 701 161 m 118 787 l 656 787 l 656 692 l 118 692 l 118 787 z "},"Ŭ":{"ha":1025,"x_min":83,"x_max":932,"o":"m 83 821 l 196 821 l 196 200 q 224 130 197 157 q 294 102 252 102 l 720 102 q 791 130 764 102 q 819 200 819 157 l 819 821 l 932 821 l 932 185 q 878 54 932 109 q 747 0 823 0 l 268 0 q 137 54 192 0 q 83 185 83 109 l 83 821 m 610 1086 l 709 1086 l 709 999 q 672 922 709 954 q 587 890 637 890 l 411 890 q 324 922 360 890 q 288 999 288 954 l 288 1086 l 386 1086 l 386 1032 q 404 998 386 1010 q 448 984 422 984 l 551 984 q 593 998 576 984 q 610 1032 611 1010 l 610 1086 z "},"ŭ":{"ha":785,"x_min":75,"x_max":701,"o":"m 701 161 q 648 47 701 95 q 522 0 597 0 l 254 0 q 127 47 180 0 q 75 161 75 94 l 75 605 l 184 605 l 184 184 q 212 123 185 147 q 279 98 239 98 l 496 98 q 564 122 536 98 q 591 184 591 146 l 591 605 l 701 605 l 701 161 m 488 871 l 587 871 l 587 784 q 551 707 587 739 q 465 675 515 675 l 290 675 q 203 707 239 675 q 167 784 167 739 l 167 871 l 264 871 l 264 817 q 283 783 264 795 q 327 769 301 769 l 429 769 q 472 783 454 769 q 488 817 490 795 l 488 871 z "},"Ů":{"ha":1025,"x_min":83,"x_max":932,"o":"m 83 821 l 196 821 l 196 200 q 224 130 197 157 q 294 102 252 102 l 720 102 q 791 130 764 102 q 819 200 819 157 l 819 821 l 932 821 l 932 185 q 878 54 932 109 q 747 0 823 0 l 268 0 q 137 54 192 0 q 83 185 83 109 l 83 821 m 438 1187 q 582 1187 438 1187 q 644 1164 618 1187 q 670 1109 671 1141 l 670 968 q 644 913 670 936 q 582 890 618 890 l 438 890 q 376 913 402 890 q 350 968 350 936 l 350 1109 q 376 1164 350 1141 q 438 1187 402 1187 m 469 1109 q 445 1101 455 1109 q 435 1080 435 1093 l 435 998 q 445 977 435 985 q 469 969 455 969 l 551 969 q 574 977 565 969 q 583 998 585 985 l 583 1080 q 574 1101 584 1094 q 551 1109 565 1109 l 469 1109 z "},"ů":{"ha":783,"x_min":74,"x_max":699,"o":"m 699 161 q 647 47 699 95 q 521 0 595 0 l 252 0 q 126 47 179 0 q 74 161 74 94 l 74 605 l 183 605 l 183 184 q 210 123 184 147 q 278 98 237 98 l 494 98 q 562 122 535 98 q 589 184 589 146 l 589 605 l 699 605 l 699 161 m 319 972 q 463 972 319 972 q 525 949 498 972 q 551 894 551 926 l 551 753 q 524 698 551 721 q 463 675 498 675 l 319 675 q 256 698 283 675 q 231 753 231 721 l 231 894 q 256 949 231 926 q 319 972 283 972 m 349 894 q 326 886 336 894 q 316 865 316 878 l 316 783 q 326 762 316 770 q 349 754 336 754 l 431 754 q 455 762 446 754 q 464 783 465 770 l 464 865 q 454 886 465 879 q 431 894 446 894 l 349 894 z "},"Ŵ":{"ha":1409,"x_min":24,"x_max":1375,"o":"m 24 821 l 146 821 l 393 146 l 639 800 l 758 800 l 1006 146 l 1254 821 l 1375 821 l 1067 0 l 951 0 l 699 668 l 448 0 l 332 0 l 24 821 m 700 1053 l 573 890 l 471 890 l 642 1129 l 759 1129 l 928 890 l 827 890 l 700 1053 z "},"ŵ":{"ha":1146,"x_min":33,"x_max":1099,"o":"m 33 605 l 149 605 l 329 149 l 507 605 l 623 605 l 802 149 l 981 605 l 1099 605 l 861 0 l 748 0 l 565 460 l 382 0 l 270 0 l 33 605 m 569 838 l 442 675 l 340 675 l 511 913 l 628 913 l 798 675 l 696 675 l 569 838 z "},"Ŷ":{"ha":945,"x_min":20,"x_max":916,"o":"m 20 821 l 165 821 l 438 450 l 711 821 l 857 821 l 494 353 l 494 0 l 382 0 l 382 353 l 20 821 m 479 1053 l 352 890 l 250 890 l 421 1129 l 538 1129 l 707 890 l 606 890 l 479 1053 z "},"ŷ":{"ha":778,"x_min":74,"x_max":690,"o":"m 74 605 l 183 605 l 183 184 q 208 123 183 150 q 269 98 232 98 l 581 98 l 581 605 l 690 605 l 690 0 l 690 -75 q 637 -189 690 -141 q 510 -235 585 -235 l 129 -235 l 129 -138 l 495 -138 q 556 -112 532 -138 q 581 -51 581 -85 l 581 0 l 254 0 q 126 47 179 0 q 74 161 74 95 l 74 605 m 389 838 l 262 675 l 160 675 l 331 913 l 448 913 l 617 675 l 515 675 l 389 838 z "},"Ÿ":{"ha":947,"x_min":21,"x_max":918,"o":"m 21 821 l 167 821 l 439 450 l 712 821 l 858 821 l 496 353 l 496 0 l 383 0 l 383 353 l 21 821 m 259 1043 l 392 1043 l 392 924 l 259 924 l 259 1043 m 556 1043 l 689 1043 l 689 924 l 556 924 l 556 1043 z "},"Ź":{"ha":968,"x_min":57,"x_max":906,"o":"m 832 821 l 832 751 l 235 101 l 844 101 l 844 0 l 57 0 l 57 70 l 650 720 l 68 720 l 68 821 l 832 821 m 600 1147 l 343 1002 l 343 891 l 600 1017 l 600 1147 z "},"ź":{"ha":752,"x_min":71,"x_max":671,"o":"m 71 508 l 71 605 l 631 605 l 631 484 l 235 98 l 631 98 l 631 0 l 71 0 l 71 98 l 499 508 l 71 508 m 496 932 l 239 787 l 239 675 l 496 801 l 496 932 z "},"Ž":{"ha":968,"x_min":57,"x_max":906,"o":"m 832 821 l 832 751 l 235 101 l 844 101 l 844 0 l 57 0 l 57 70 l 650 720 l 68 720 l 68 821 l 832 821 m 481 967 l 608 1130 l 710 1130 l 539 891 l 422 891 l 253 1130 l 355 1130 l 481 967 z "},"ž":{"ha":751,"x_min":71,"x_max":671,"o":"m 71 508 l 71 605 l 631 605 l 631 484 l 235 98 l 631 98 l 631 0 l 71 0 l 71 98 l 499 508 l 71 508 m 374 751 l 500 914 l 602 914 l 431 675 l 315 675 l 145 914 l 247 914 l 374 751 z "},"Ǎ":{"ha":1043,"x_min":34,"x_max":1016,"o":"m 424 821 l 559 821 l 948 0 l 822 0 l 704 252 l 279 252 l 161 0 l 34 0 l 424 821 m 491 707 l 326 355 l 655 355 l 491 707 m 524 967 l 650 1130 l 752 1130 l 581 891 l 465 891 l 295 1130 l 397 1130 l 524 967 z "},"ǎ":{"ha":773,"x_min":71,"x_max":687,"o":"m 687 0 l 251 0 q 123 47 176 0 q 71 161 71 95 l 71 444 q 124 558 71 511 q 251 605 177 606 l 687 605 l 687 0 m 578 98 l 578 506 l 276 506 q 208 481 235 506 q 180 420 181 457 q 180 184 180 420 q 208 123 181 147 q 276 98 235 98 l 578 98 m 408 752 l 535 915 l 637 915 l 466 676 l 349 676 l 180 915 l 281 915 l 408 752 z "},"Ǐ":{"ha":480,"x_min":15,"x_max":472,"o":"m 182 821 l 295 821 l 295 0 l 182 0 l 182 821 m 243 967 l 370 1130 l 472 1130 l 301 891 l 184 891 l 15 1130 l 117 1130 l 243 967 z "},"ǐ":{"ha":484,"x_min":9,"x_max":466,"o":"m 182 605 l 290 605 l 290 0 l 182 0 l 182 605 m 237 752 l 364 915 l 466 915 l 295 676 l 178 676 l 9 915 l 111 915 l 237 752 z "},"Ǒ":{"ha":1027,"x_min":75,"x_max":942,"o":"m 260 821 q 756 821 260 821 q 888 766 833 821 q 942 635 942 712 l 942 185 q 887 54 942 109 q 756 0 833 0 l 260 0 q 130 54 184 0 q 75 185 75 109 l 75 635 q 130 766 75 712 q 260 821 184 821 m 287 720 q 216 691 245 720 q 189 621 189 663 l 189 200 q 216 130 189 157 q 287 102 245 102 l 730 102 q 801 130 772 102 q 829 200 829 159 l 829 621 q 800 691 829 663 q 730 720 772 720 l 287 720 m 496 967 l 623 1130 l 725 1130 l 554 891 l 437 891 l 268 1130 l 370 1130 l 496 967 z "},"ǒ":{"ha":799,"x_min":72,"x_max":722,"o":"m 251 605 q 543 605 251 605 q 669 557 617 605 q 722 444 722 511 l 722 161 q 669 47 722 94 q 543 0 616 0 l 251 0 q 124 47 178 0 q 72 161 72 95 l 72 444 q 125 558 72 511 q 251 605 178 606 m 277 506 q 208 481 236 506 q 181 420 182 456 l 181 184 q 208 123 182 147 q 277 98 236 98 l 517 98 q 585 123 559 98 q 612 184 612 147 l 612 420 q 585 481 612 457 q 517 506 559 506 l 277 506 m 391 753 l 518 916 l 620 916 l 449 677 l 332 677 l 163 916 l 264 916 l 391 753 z "},"Ǔ":{"ha":1025,"x_min":83,"x_max":932,"o":"m 83 821 l 196 821 l 196 200 q 224 130 197 157 q 294 102 252 102 l 720 102 q 791 130 764 102 q 819 200 819 157 l 819 821 l 932 821 l 932 185 q 878 54 932 109 q 747 0 823 0 l 268 0 q 137 54 192 0 q 83 185 83 109 l 83 821 m 480 967 l 607 1130 l 709 1130 l 538 891 l 421 891 l 252 1130 l 353 1130 l 480 967 z "},"ǔ":{"ha":784,"x_min":75,"x_max":700,"o":"m 700 161 q 648 47 700 95 q 522 0 596 0 l 253 0 q 127 47 180 0 q 75 161 75 94 l 75 605 l 184 605 l 184 184 q 211 123 184 147 q 279 98 238 98 l 495 98 q 563 122 536 98 q 590 184 590 146 l 590 605 l 700 605 l 700 161 m 358 752 l 485 915 l 587 915 l 416 676 l 299 676 l 130 915 l 231 915 l 358 752 z "},"Ǧ":{"ha":1005,"x_min":75,"x_max":924,"o":"m 260 821 q 867 821 260 821 l 867 720 l 287 720 q 216 692 245 720 q 189 621 189 665 l 189 200 q 216 130 189 157 q 287 102 245 102 l 712 102 q 783 130 755 102 q 811 200 812 159 l 811 351 l 613 351 l 613 452 l 924 452 l 924 184 q 869 54 924 109 q 739 0 815 0 l 260 0 q 130 54 184 0 q 75 184 75 109 l 75 635 q 130 766 75 712 q 260 821 184 821 m 484 967 l 611 1130 l 713 1130 l 542 891 l 425 891 l 256 1130 l 357 1130 l 484 967 z "},"ǧ":{"ha":773,"x_min":71,"x_max":687,"o":"m 251 605 q 687 605 251 605 l 687 -75 q 634 -189 687 -141 q 507 -235 582 -235 l 126 -235 l 126 -138 l 492 -138 q 553 -112 529 -138 q 578 -51 578 -85 l 578 0 l 251 0 q 123 47 176 0 q 71 161 71 95 l 71 445 q 124 558 71 511 q 251 605 177 605 m 276 507 q 208 483 235 507 q 180 422 181 458 l 180 184 q 205 123 180 150 q 266 98 229 98 q 578 98 496 99 l 578 507 l 276 507 m 395 751 l 522 914 l 623 914 l 452 675 l 336 675 l 166 914 l 268 914 l 395 751 z "},"Ǩ":{"ha":907,"x_min":92,"x_max":876,"o":"m 92 821 l 205 821 l 205 393 l 656 821 l 827 821 l 406 437 l 843 0 l 677 0 l 319 362 l 205 264 l 205 0 l 92 0 l 92 821 m 393 967 l 520 1130 l 622 1130 l 451 891 l 334 891 l 165 1130 l 267 1130 l 393 967 z "},"ǩ":{"ha":703,"x_min":-78,"x_max":668,"o":"m 92 875 l 201 875 l 201 352 l 502 605 l 664 605 l 332 320 l 668 0 l 513 0 l 251 250 l 201 207 l 201 0 l 92 0 l 92 875 m 151 967 l 277 1130 l 379 1130 l 208 891 l 92 891 l -78 1130 l 24 1130 l 151 967 z "},"ǰ":{"ha":530,"x_min":41,"x_max":609,"o":"m 326 605 l 435 605 l 435 -54 q 382 -168 435 -121 q 256 -215 330 -215 l 41 -215 l 41 -117 l 241 -117 q 302 -92 277 -117 q 326 -31 326 -65 l 326 605 m 380 758 l 507 920 l 609 920 l 438 682 l 321 682 l 152 920 l 254 920 l 380 758 z "},"Ǵ":{"ha":1005,"x_min":75,"x_max":924,"o":"m 260 821 q 867 821 260 821 l 867 720 l 287 720 q 216 692 245 720 q 189 621 189 665 l 189 200 q 216 130 189 157 q 287 102 245 102 l 712 102 q 783 130 755 102 q 811 200 812 159 l 811 351 l 613 351 l 613 452 l 924 452 l 924 184 q 869 54 924 109 q 739 0 815 0 l 260 0 q 130 54 184 0 q 75 184 75 109 l 75 635 q 130 766 75 712 q 260 821 184 821 m 630 1147 l 373 1002 l 373 891 l 630 1017 l 630 1147 z "},"ǵ":{"ha":773,"x_min":71,"x_max":687,"o":"m 251 605 q 687 605 251 605 l 687 -75 q 634 -189 687 -141 q 507 -235 582 -235 l 126 -235 l 126 -138 l 492 -138 q 553 -112 529 -138 q 578 -51 578 -85 l 578 0 l 251 0 q 123 47 176 0 q 71 161 71 95 l 71 445 q 124 558 71 511 q 251 605 177 605 m 276 507 q 208 483 235 507 q 180 422 181 458 l 180 184 q 205 123 180 150 q 266 98 229 98 q 578 98 496 99 l 578 507 l 276 507 m 527 932 l 270 787 l 270 675 l 527 801 l 527 932 z "},"Ȟ":{"ha":971,"x_min":92,"x_max":876,"o":"m 92 821 l 205 821 l 205 476 l 749 476 l 749 821 l 862 821 l 862 0 l 749 0 l 749 372 l 205 372 l 205 0 l 92 0 l 92 821 m 454 967 l 581 1130 l 683 1130 l 512 891 l 395 891 l 226 1130 l 328 1130 l 454 967 z "},"ȟ":{"ha":793,"x_min":-79,"x_max":707,"o":"m 92 875 l 201 875 l 201 605 l 528 605 q 655 557 603 605 q 707 444 707 511 l 707 0 l 598 0 l 598 421 q 574 482 598 456 q 513 507 549 508 l 201 507 l 201 0 l 92 0 l 92 875 m 150 967 l 277 1130 l 378 1130 l 208 891 l 91 891 l -79 1130 l 23 1130 l 150 967 z "},"Ȩ":{"ha":932,"x_min":76,"x_max":860,"o":"m 261 821 q 860 821 261 821 l 860 717 l 288 717 q 217 689 245 718 q 189 618 190 662 l 189 476 l 747 476 l 747 372 l 189 372 l 189 202 q 217 132 190 160 q 288 104 245 104 l 860 104 l 860 0 l 261 0 q 130 54 185 0 q 76 185 76 109 l 76 635 q 130 766 76 712 q 261 821 185 821 m 423 -69 l 557 -69 l 401 -389 l 325 -351 l 423 -69 z "},"ȩ":{"ha":769,"x_min":79,"x_max":695,"o":"m 258 605 q 517 605 258 605 q 643 557 591 605 q 695 444 695 511 l 695 246 l 188 246 l 188 136 q 204 106 188 118 q 243 94 220 95 q 641 94 243 94 l 641 0 l 224 0 q 121 36 165 0 q 79 123 79 73 l 79 246 l 79 444 q 132 558 79 511 q 258 605 184 605 m 283 507 q 215 482 243 507 q 188 421 188 458 l 188 344 l 586 344 l 586 421 q 558 483 585 458 q 491 507 532 507 l 283 507 m 321 -69 l 456 -69 l 300 -389 l 223 -351 l 321 -69 z "},"Ȳ":{"ha":947,"x_min":21,"x_max":918,"o":"m 21 821 l 167 821 l 439 450 l 712 821 l 858 821 l 496 353 l 496 0 l 383 0 l 383 353 l 21 821 m 206 1002 l 744 1002 l 744 907 l 206 907 l 206 1002 z "},"ȳ":{"ha":782,"x_min":76,"x_max":692,"o":"m 76 605 l 185 605 l 185 184 q 210 123 185 150 q 271 98 234 98 l 583 98 l 583 605 l 692 605 l 692 0 l 692 -75 q 639 -189 692 -141 q 512 -235 587 -235 l 131 -235 l 131 -138 l 497 -138 q 558 -112 534 -138 q 583 -51 583 -85 l 583 0 l 256 0 q 128 47 181 0 q 76 161 76 95 l 76 605 m 113 786 l 651 786 l 651 691 l 113 691 l 113 786 z "},"ˆ":{"ha":592,"x_min":77,"x_max":534,"o":"m 305 983 l 178 820 l 77 820 l 248 1059 l 364 1059 l 534 820 l 432 820 l 305 983 z "},"ˇ":{"ha":534,"x_min":22,"x_max":479,"o":"m 251 896 l 378 1059 l 479 1059 l 309 820 l 192 820 l 22 1059 l 124 1059 l 251 896 z "},"ˉ":{"ha":689,"x_min":76,"x_max":614,"o":"m 76 914 l 614 914 l 614 819 l 76 819 l 76 914 z "},"˘":{"ha":539,"x_min":62,"x_max":482,"o":"m 383 1017 l 482 1017 l 482 930 q 446 852 482 885 q 360 821 410 821 l 184 821 q 98 852 134 821 q 62 930 62 885 l 62 1017 l 159 1017 l 159 963 q 178 928 159 941 q 222 915 196 915 l 324 915 q 367 928 349 915 q 383 963 385 941 l 383 1017 z "},"˚":{"ha":453,"x_min":69,"x_max":390,"o":"m 157 1119 q 301 1119 157 1119 q 363 1096 337 1119 q 389 1040 390 1073 l 389 900 q 363 844 389 867 q 301 821 337 822 l 157 821 q 95 844 121 822 q 69 900 69 867 l 69 1040 q 95 1096 69 1073 q 157 1119 121 1119 m 188 1040 q 164 1032 174 1040 q 155 1011 155 1024 l 155 930 q 164 909 155 917 q 188 901 174 901 l 270 901 q 294 909 284 901 q 302 930 304 917 l 302 1011 q 293 1033 303 1025 q 270 1040 284 1040 l 188 1040 z "},"˜":{"ha":536,"x_min":77,"x_max":474,"o":"m 396 989 l 474 989 l 474 908 q 445 846 474 873 q 370 821 417 821 q 271 861 328 821 q 184 901 214 901 q 155 852 155 902 l 155 821 l 77 821 l 77 901 q 106 963 77 937 q 181 989 135 989 q 281 949 224 989 q 368 908 337 908 q 396 959 396 908 l 396 989 z "},"̀":{"ha":379,"x_min":61,"x_max":318,"o":"m 61 1077 l 318 932 l 318 821 l 61 946 l 61 1077 z "},"̑":{"ha":575,"x_min":75,"x_max":495,"o":"m 396 820 l 396 873 q 380 908 398 896 q 337 922 362 922 l 235 922 q 191 908 209 922 q 172 873 172 896 l 172 820 l 75 820 l 75 907 q 111 984 75 951 q 197 1016 146 1016 l 373 1016 q 458 984 424 1016 q 495 907 495 951 l 495 820 l 396 820 z "},"¡":{"ha":277,"x_min":84,"x_max":195,"o":"m 194 605 l 194 485 l 85 485 l 85 605 l 194 605 m 176 390 l 195 -216 l 84 -216 l 103 390 l 176 390 z "},"¿":{"ha":565,"x_min":65,"x_max":519,"o":"m 482 390 l 482 182 l 277 182 q 206 154 235 182 q 178 83 178 126 l 178 -16 q 205 -86 178 -58 q 277 -115 234 -115 l 519 -115 l 519 -216 l 250 -216 q 119 -162 174 -216 q 65 -31 65 -107 l 65 98 q 119 229 65 175 q 250 283 174 283 l 372 283 l 385 390 l 482 390 m 482 605 l 482 485 l 374 485 l 374 605 l 482 605 z "},"«":{"ha":719,"x_min":68,"x_max":651,"o":"m 185 387 l 376 214 l 376 101 l 68 345 l 68 422 l 376 667 l 376 554 l 185 387 m 460 387 l 651 214 l 650 101 l 342 345 l 342 422 l 650 667 l 651 554 l 460 387 z "},"»":{"ha":719,"x_min":68,"x_max":651,"o":"m 534 387 l 342 214 l 343 101 l 651 345 l 651 422 l 343 667 l 342 554 l 534 387 m 259 387 l 68 214 l 68 101 l 376 345 l 376 422 l 68 667 l 68 554 l 259 387 z "},"æ":{"ha":1090,"x_min":77,"x_max":1017,"o":"m 687 507 q 618 482 647 507 q 591 421 591 458 l 591 344 l 908 344 l 908 421 q 880 483 907 458 q 813 507 854 507 l 687 507 m 186 197 l 186 136 q 201 106 185 117 q 243 94 218 94 l 483 94 l 483 239 l 243 239 q 202 227 218 239 q 186 197 186 215 m 222 344 l 483 344 l 483 444 q 483 472 483 458 q 469 498 481 488 q 428 512 452 512 l 132 512 l 132 605 q 449 605 530 605 q 550 570 508 606 q 661 605 598 605 q 839 605 661 605 q 965 557 913 605 q 1017 444 1017 511 l 1017 246 l 591 246 l 591 136 q 608 106 591 118 q 647 94 624 95 q 963 94 647 94 l 963 0 l 661 0 q 550 35 597 0 q 449 0 508 -1 l 222 0 q 120 36 162 0 q 77 123 77 73 l 77 220 q 119 307 77 271 q 222 344 161 344 z "},"Æ":{"ha":1415,"x_min":34,"x_max":1344,"o":"m 644 707 l 401 355 l 644 355 l 644 707 m 733 773 q 865 821 786 821 q 1344 821 865 821 l 1344 717 l 856 717 q 785 689 814 718 q 758 618 758 662 l 758 476 l 1231 476 l 1231 372 l 758 372 l 758 202 q 785 132 758 160 q 856 104 814 104 l 1344 104 l 1344 0 l 865 0 q 733 47 793 0 l 733 0 l 644 0 l 644 252 l 328 252 l 155 0 l 34 0 l 608 821 l 733 821 l 733 773 z "},"œ":{"ha":1144,"x_min":75,"x_max":1068,"o":"m 738 507 q 669 482 698 507 q 642 421 642 458 l 642 344 l 959 344 l 959 421 q 931 483 958 458 q 864 507 905 507 l 738 507 m 279 506 q 211 481 239 506 q 184 420 184 456 l 184 184 q 211 123 184 147 q 279 98 239 98 l 438 98 q 507 123 480 98 q 534 184 534 147 l 534 420 q 507 481 534 457 q 438 506 480 506 l 279 506 m 1068 246 l 643 247 l 642 136 q 659 106 642 118 q 698 94 675 95 q 1014 94 698 94 l 1014 0 l 679 0 q 576 35 620 0 q 464 0 528 0 l 254 0 q 127 47 180 0 q 75 161 75 95 l 75 444 q 127 558 75 511 q 254 605 180 606 q 464 605 254 605 q 588 560 536 605 q 712 605 640 605 q 890 605 712 605 q 1016 557 964 605 q 1068 444 1068 511 l 1068 246 z "},"Œ":{"ha":1520,"x_min":75,"x_max":1450,"o":"m 287 720 q 216 691 245 720 q 189 621 189 663 l 189 200 q 216 130 189 157 q 287 102 245 102 l 648 102 q 720 130 691 102 q 747 200 748 159 l 747 621 q 719 691 747 663 q 648 720 691 720 l 287 720 m 861 197 q 888 130 862 157 q 959 102 917 102 l 1450 102 l 1450 0 l 932 0 q 804 52 858 0 q 675 0 750 0 l 260 0 q 130 54 184 0 q 75 185 75 109 l 75 635 q 130 766 75 712 q 260 821 184 821 q 675 821 260 821 q 804 768 751 821 q 932 821 858 821 q 1450 821 932 821 l 1450 720 l 959 720 q 888 692 917 720 q 861 624 862 665 l 861 476 l 1337 476 l 1337 372 l 861 372 l 861 197 z "},"¢":{"ha":712,"x_min":75,"x_max":637,"o":"m 443 1 l 443 -143 l 345 -143 l 345 0 l 254 0 q 127 47 180 0 q 75 161 75 95 l 75 444 q 127 558 75 511 q 254 605 180 606 q 345 605 254 605 l 345 748 l 443 748 l 443 605 q 637 605 523 605 l 637 506 l 279 506 q 210 481 237 505 q 183 420 183 458 l 183 184 q 210 123 183 147 q 279 98 237 98 l 637 98 l 637 0 l 443 1 z "},"¥":{"ha":952,"x_min":28,"x_max":924,"o":"m 532 349 l 532 216 l 805 216 l 805 117 l 532 117 l 532 0 l 420 0 l 420 117 l 148 117 l 148 216 l 420 216 l 420 349 l 148 349 l 148 448 l 340 448 l 28 821 l 179 821 l 476 453 l 773 821 l 924 821 l 612 448 l 805 448 l 805 349 l 532 349 z "},"‘":{"ha":370,"x_min":63,"x_max":296,"o":"m 197 540 l 63 540 l 219 859 l 296 821 l 197 540 z "},"’":{"ha":370,"x_min":62,"x_max":295,"o":"m 161 821 l 295 821 l 139 501 l 62 539 l 161 821 z "},"‛":{"ha":370,"x_min":62,"x_max":294,"o":"m 196 821 l 294 539 l 218 501 l 62 821 l 196 821 z "},"“":{"ha":614,"x_min":63,"x_max":540,"o":"m 441 540 l 307 540 l 463 859 l 540 821 l 441 540 m 197 540 l 63 540 l 219 859 l 296 821 l 197 540 z "},"”":{"ha":614,"x_min":63,"x_max":540,"o":"m 161 821 l 296 821 l 140 501 l 63 539 l 161 821 m 406 821 l 540 821 l 384 501 l 307 539 l 406 821 z "},"‚":{"ha":370,"x_min":62,"x_max":295,"o":"m 161 102 l 295 102 l 139 -217 l 62 -179 l 161 102 z "},"„":{"ha":614,"x_min":63,"x_max":540,"o":"m 161 105 l 296 105 l 140 -214 l 63 -176 l 161 105 m 406 105 l 540 105 l 384 -214 l 307 -176 l 406 105 z "},"‹":{"ha":444,"x_min":68,"x_max":376,"o":"m 185 387 l 376 214 l 376 101 l 68 345 l 68 422 l 376 667 l 376 554 l 185 387 z "},"›":{"ha":444,"x_min":67,"x_max":376,"o":"m 258 387 l 67 554 l 68 667 l 376 422 l 376 345 l 68 101 l 67 214 l 258 387 z "},"%":{"ha":1286,"x_min":-1381,"x_max":1223,"o":"m 793 821 l 899 821 l 517 0 l 411 0 l 793 821 m 793 821 l 899 821 l 517 0 l 411 0 l 793 821 m 248 778 q 334 778 248 778 q 465 724 411 778 q 519 593 519 669 l 519 517 q 465 387 519 441 q 334 332 410 332 l 248 332 q 117 387 172 332 q 63 517 63 441 l 63 593 q 117 724 63 669 q 248 778 172 778 m 260 691 q 190 663 218 691 q 162 592 163 635 l 162 518 q 190 448 163 475 q 260 420 218 420 l 321 420 q 393 448 364 420 q 420 518 421 477 l 420 592 q 392 663 420 635 q 321 691 364 691 l 260 691 m 952 446 q 1038 446 952 446 q 1169 391 1115 446 q 1223 260 1223 337 l 1223 185 q 1168 54 1223 109 q 1038 0 1114 0 l 952 0 q 821 54 876 0 q 767 185 767 109 l 767 260 q 821 391 767 337 q 952 446 876 446 m 964 359 q 894 330 922 359 q 866 260 867 302 l 866 186 q 894 115 867 143 q 964 87 922 87 l 1025 87 q 1097 116 1068 87 q 1124 186 1125 144 l 1124 260 q 1096 330 1124 302 q 1025 359 1068 359 l 964 359 m -1381 389 l -1381 455 l -1381 389 z "},"~":{"ha":600,"x_min":68,"x_max":532,"o":"m 454 492 l 532 492 l 532 412 q 503 350 532 376 q 429 325 475 325 q 294 366 374 325 q 174 406 214 406 q 146 356 146 406 l 146 325 l 68 325 l 68 405 q 96 467 68 441 q 172 492 125 492 q 305 452 231 492 q 426 411 380 411 q 454 462 454 411 l 454 492 z "},"*":{"ha":536,"x_min":68,"x_max":468,"o":"m 212 557 l 68 585 l 98 677 l 240 614 l 218 797 l 319 797 l 295 614 l 437 677 l 468 585 l 323 557 l 436 437 l 355 379 l 268 534 l 180 379 l 99 437 l 212 557 z "},"Ø":{"ha":1031,"x_min":79,"x_max":946,"o":"m 264 821 q 760 821 264 821 q 892 766 838 821 q 946 635 946 712 l 946 185 q 891 54 946 109 q 760 0 837 0 l 264 0 q 134 54 189 0 q 79 185 79 109 l 79 635 q 134 766 79 712 q 264 821 189 821 m 267 104 q 291 102 279 102 l 734 102 q 805 130 777 102 q 833 200 833 159 l 833 621 q 826 659 833 642 l 267 104 m 749 719 q 734 720 742 720 l 291 720 q 220 691 249 720 q 193 621 193 663 l 193 200 q 197 168 193 182 l 749 719 z "},"ø":{"ha":804,"x_min":75,"x_max":724,"o":"m 254 605 q 545 605 254 605 q 672 557 620 605 q 724 444 724 511 l 724 161 q 671 47 724 94 q 545 0 619 0 l 254 0 q 127 47 180 0 q 75 161 75 95 l 75 444 q 127 558 75 511 q 254 605 180 606 m 250 102 q 279 98 264 98 l 519 98 q 588 123 562 98 q 615 184 615 147 l 615 420 q 607 458 615 441 l 250 102 m 544 504 q 519 506 532 506 l 279 506 q 211 481 239 506 q 184 420 184 456 l 184 184 q 191 151 184 165 l 544 504 z "},"×":{"ha":649,"x_min":81,"x_max":568,"o":"m 395 410 l 568 236 l 498 166 l 325 340 l 151 166 l 81 236 l 256 410 l 83 583 l 152 652 l 325 479 l 498 652 l 567 583 l 395 410 z "},"£":{"ha":722,"x_min":47,"x_max":661,"o":"m 240 101 l 661 101 l 661 0 l 47 0 l 47 101 l 127 101 l 127 356 l 47 356 l 47 457 l 127 457 l 127 635 q 182 766 127 711 q 312 821 235 821 l 456 821 q 587 766 532 821 q 642 635 642 711 l 642 625 l 528 625 q 494 694 522 669 q 430 719 467 719 l 338 719 q 268 691 296 719 q 240 621 240 663 l 240 457 l 517 457 l 517 356 l 240 356 l 240 101 z "},"©":{"ha":876,"x_min":68,"x_max":935,"o":"m 411 676 q 724 676 411 676 l 724 577 l 436 577 q 368 552 395 576 q 340 492 340 529 l 340 326 q 368 265 340 290 q 436 241 395 241 l 724 241 l 724 142 l 411 142 q 284 190 338 142 q 232 303 232 237 l 232 515 q 285 629 232 583 q 411 676 338 677 m 253 821 q 749 821 253 821 q 880 766 826 821 q 935 635 935 712 l 935 185 q 880 54 935 109 q 749 0 825 0 l 253 0 q 122 54 177 0 q 68 185 68 109 l 68 635 q 122 766 68 712 q 253 821 177 821 m 269 730 q 199 701 227 730 q 171 631 172 673 l 171 190 q 199 119 172 147 q 269 92 227 92 l 732 92 q 804 120 775 92 q 831 190 832 149 l 831 631 q 803 701 831 673 q 732 730 775 730 l 269 730 z "},"®":{"ha":806,"x_min":68,"x_max":738,"o":"m 247 821 l 427 821 q 555 721 555 821 l 555 702 q 536 629 555 648 q 475 612 517 612 q 536 580 517 601 q 555 504 555 556 l 555 433 l 471 433 l 471 517 q 402 567 471 567 l 326 567 l 326 433 l 247 433 l 247 821 m 326 756 l 326 637 l 413 637 q 471 687 471 635 q 471 706 471 687 q 413 756 471 756 l 326 756 m 253 968 q 552 968 253 968 q 684 914 629 968 q 738 783 738 860 l 738 482 q 683 351 738 406 q 552 297 629 297 l 253 297 q 122 351 177 297 q 68 482 68 406 l 68 783 q 122 914 68 860 q 253 968 177 968 m 262 884 q 192 856 220 884 q 164 785 165 828 l 164 480 q 192 410 165 437 q 262 382 220 382 l 543 382 q 614 410 585 382 q 642 480 642 439 l 642 785 q 613 856 642 828 q 543 884 585 884 l 262 884 z "},"—":{"ha":1203,"x_min":81,"x_max":1122,"o":"m 81 361 l 81 460 l 1122 460 l 1122 361 l 81 361 z "},"–":{"ha":789,"x_min":81,"x_max":708,"o":"m 81 361 l 81 460 l 708 460 l 708 361 l 81 361 z "},"⁄":{"ha":556,"x_min":34,"x_max":522,"o":"m 416 821 l 522 821 l 140 0 l 34 0 l 416 821 z "},"¦":{"ha":290,"x_min":89,"x_max":201,"o":"m 201 227 l 201 -215 l 89 -215 l 89 227 l 201 227 m 201 821 l 201 378 l 89 378 l 89 821 l 201 821 z "},"‰":{"ha":1848,"x_min":63,"x_max":1785,"o":"m 793 821 l 899 821 l 517 0 l 411 0 l 793 821 m 248 778 q 334 778 248 778 q 465 724 411 778 q 519 593 519 669 l 519 517 q 465 387 519 441 q 334 332 410 332 l 248 332 q 117 387 172 332 q 63 517 63 441 l 63 593 q 117 724 63 669 q 248 778 172 778 m 260 691 q 190 663 218 691 q 162 592 163 635 l 162 518 q 190 448 163 475 q 260 420 218 420 l 321 420 q 393 448 364 420 q 420 518 421 477 l 420 592 q 392 663 420 635 q 321 691 364 691 l 260 691 m 952 446 q 1038 446 952 446 q 1169 391 1115 446 q 1223 260 1223 337 l 1223 185 q 1168 54 1223 109 q 1038 0 1114 0 l 952 0 q 821 54 876 0 q 767 185 767 109 l 767 260 q 821 391 767 337 q 952 446 876 446 m 964 359 q 894 330 922 359 q 866 260 867 302 l 866 186 q 894 115 867 143 q 964 87 922 87 l 1025 87 q 1097 116 1068 87 q 1124 186 1125 144 l 1124 260 q 1096 330 1124 302 q 1025 359 1068 359 l 964 359 m 1514 446 q 1599 446 1514 446 q 1731 391 1676 446 q 1785 260 1785 337 l 1785 185 q 1730 54 1785 109 q 1599 0 1676 0 l 1514 0 q 1383 54 1438 0 q 1329 185 1329 109 l 1329 260 q 1383 391 1329 337 q 1514 446 1438 446 m 1526 359 q 1455 330 1484 359 q 1428 260 1428 302 l 1428 186 q 1455 115 1428 143 q 1526 87 1484 87 l 1587 87 q 1658 116 1630 87 q 1686 186 1687 144 l 1686 260 q 1657 330 1686 302 q 1587 359 1630 359 l 1526 359 z "},"€":{"ha":968,"x_min":34,"x_max":900,"o":"m 241 368 l 634 368 l 621 269 l 241 269 l 241 200 q 269 130 242 157 q 340 102 298 102 l 688 102 q 759 130 730 102 q 787 200 787 159 l 787 268 l 900 268 l 900 185 q 845 54 900 109 q 714 0 791 0 l 313 0 q 182 54 237 0 q 128 185 128 109 l 127 269 l 35 269 l 48 368 l 128 368 l 128 454 l 34 454 l 48 552 l 128 552 l 128 635 q 182 766 128 712 q 313 821 237 821 q 714 821 313 821 q 846 766 791 821 q 900 635 900 712 l 900 553 l 787 553 l 787 621 q 758 691 787 663 q 688 720 730 720 l 340 720 q 269 691 298 720 q 241 621 242 663 l 242 552 l 634 552 l 620 454 l 241 454 l 241 368 z "},"≠":{"ha":791,"x_min":87,"x_max":704,"o":"m 271 235 l 87 235 l 87 334 l 316 334 l 388 488 l 87 488 l 87 586 l 433 586 l 543 821 l 631 821 l 522 586 l 704 586 l 704 488 l 476 488 l 404 334 l 704 334 l 704 235 l 359 235 l 249 0 l 160 0 l 271 235 z "},"±":{"ha":756,"x_min":70,"x_max":686,"o":"m 333 214 l 333 361 l 70 361 l 70 460 l 333 460 l 333 704 l 431 704 l 431 460 l 686 460 l 686 361 l 431 361 l 431 214 l 686 214 l 686 115 l 70 115 l 70 214 l 333 214 z "},"Ð":{"ha":1029,"x_min":2,"x_max":944,"o":"m 95 460 l 95 821 l 758 821 q 890 766 836 821 q 944 635 944 712 l 944 185 q 889 54 944 109 q 758 0 835 0 l 95 0 l 95 361 l 2 361 l 2 459 l 95 460 m 208 361 l 208 102 l 732 102 q 803 130 774 102 q 831 200 831 159 q 831 621 831 200 q 802 691 831 663 q 732 720 774 720 l 208 720 l 208 459 l 435 459 l 435 361 l 208 361 z "},"ð":{"ha":781,"x_min":73,"x_max":801,"o":"m 267 506 q 206 480 231 507 q 182 419 182 454 l 182 184 q 209 123 182 147 q 277 98 237 98 l 579 98 l 579 506 l 267 506 m 689 760 l 801 760 l 801 679 l 688 680 l 688 0 l 252 0 q 125 47 178 0 q 73 161 73 94 l 73 444 q 125 557 73 511 q 252 605 178 605 l 579 605 l 580 679 l 466 679 l 466 760 l 579 760 l 579 821 l 688 821 l 689 760 z "},"Þ":{"ha":951,"x_min":95,"x_max":869,"o":"m 208 563 l 208 258 l 658 258 q 729 287 701 258 q 757 357 757 315 q 757 464 757 357 q 728 534 757 507 q 658 563 700 563 l 208 563 m 208 664 l 684 664 q 815 610 761 664 q 869 479 869 555 l 869 341 q 815 210 869 265 q 684 157 761 157 l 208 157 l 208 0 l 95 0 l 95 821 l 208 821 l 208 664 z "},"þ":{"ha":784,"x_min":89,"x_max":705,"o":"m 510 98 q 571 124 547 98 q 595 185 595 151 l 595 421 q 568 482 595 458 q 500 507 542 507 l 198 507 l 198 98 l 510 98 m 198 605 l 525 605 q 652 558 600 606 q 705 444 705 511 l 705 161 q 652 47 705 95 q 525 0 600 0 l 198 0 l 198 -235 l 89 -235 l 89 875 l 198 875 l 198 605 z "},"÷":{"ha":756,"x_min":70,"x_max":686,"o":"m 70 361 l 70 460 l 686 460 l 686 361 l 70 361 m 315 235 l 448 235 l 448 115 l 315 115 l 315 235 m 315 703 l 448 703 l 448 583 l 315 583 l 315 703 z "},"˝":{"ha":673,"x_min":61,"x_max":612,"o":"m 534 1077 l 612 989 l 398 821 l 338 903 l 534 1077 m 258 1077 l 336 989 l 121 821 l 61 903 l 258 1077 z "},"̏":{"ha":673,"x_min":61,"x_max":612,"o":"m 139 1077 l 336 903 l 275 821 l 61 989 l 139 1077 m 416 1077 l 612 903 l 552 821 l 338 989 l 416 1077 z "},"Ő":{"ha":1029,"x_min":79,"x_max":946,"o":"m 264 821 q 760 821 264 821 q 892 766 838 821 q 946 635 946 712 l 946 185 q 891 54 946 109 q 760 0 837 0 l 264 0 q 134 54 189 0 q 79 185 79 109 l 79 635 q 134 766 79 712 q 264 821 189 821 m 291 720 q 220 691 249 720 q 193 621 193 663 l 193 200 q 220 130 193 157 q 291 102 249 102 l 734 102 q 805 130 777 102 q 833 200 833 159 l 833 621 q 804 691 833 663 q 734 720 777 720 l 291 720 m 734 1146 l 812 1059 l 598 890 l 538 972 l 734 1146 m 458 1146 l 536 1059 l 321 890 l 261 972 l 458 1146 z "},"ő":{"ha":804,"x_min":75,"x_max":724,"o":"m 254 605 q 545 605 254 605 q 672 557 620 605 q 724 444 724 511 l 724 161 q 671 47 724 94 q 545 0 619 0 l 254 0 q 127 47 180 0 q 75 161 75 95 l 75 444 q 127 558 75 511 q 254 605 180 606 m 279 506 q 211 481 239 506 q 184 420 184 456 l 184 184 q 211 123 184 147 q 279 98 239 98 l 519 98 q 588 123 562 98 q 615 184 615 147 l 615 420 q 588 481 615 457 q 519 506 562 506 l 279 506 m 645 931 l 723 844 l 509 675 l 448 757 l 645 931 m 368 931 l 446 844 l 232 675 l 172 757 l 368 931 z "},"Ű":{"ha":1027,"x_min":88,"x_max":937,"o":"m 88 821 l 201 821 l 201 200 q 229 130 202 157 q 300 102 258 102 l 726 102 q 796 130 769 102 q 824 200 825 157 l 824 821 l 937 821 l 937 185 q 883 54 937 109 q 752 0 829 0 l 273 0 q 142 54 197 0 q 88 185 88 109 l 88 821 m 711 1146 l 789 1059 l 574 890 l 514 972 l 711 1146 m 434 1146 l 512 1059 l 298 890 l 237 972 l 434 1146 z "},"ű":{"ha":788,"x_min":79,"x_max":705,"o":"m 705 161 q 652 47 705 95 q 526 0 601 0 l 258 0 q 132 47 184 0 q 79 161 79 94 l 79 605 l 189 605 l 189 184 q 216 123 189 147 q 283 98 243 98 l 500 98 q 568 122 541 98 q 595 184 595 146 l 595 605 l 705 605 l 705 161 m 590 930 l 668 843 l 454 674 l 393 756 l 590 930 m 313 930 l 391 843 l 177 674 l 117 756 l 313 930 z "},"Ȁ":{"ha":1044,"x_min":37,"x_max":1019,"o":"m 427 821 l 562 821 l 951 0 l 825 0 l 707 252 l 282 252 l 164 0 l 37 0 l 427 821 m 494 707 l 330 355 l 659 355 l 494 707 m 331 1146 l 528 972 l 467 890 l 253 1059 l 331 1146 m 608 1146 l 804 972 l 744 890 l 530 1059 l 608 1146 z "},"ȁ":{"ha":777,"x_min":74,"x_max":690,"o":"m 690 0 l 254 0 q 126 47 179 0 q 74 161 74 95 l 74 444 q 127 558 74 511 q 254 605 180 606 l 690 605 l 690 0 m 581 98 l 581 506 l 279 506 q 210 481 238 506 q 183 420 184 457 q 183 184 183 420 q 210 123 184 147 q 279 98 238 98 l 581 98 m 184 931 l 381 757 l 321 675 l 106 844 l 184 931 m 461 931 l 658 757 l 597 675 l 383 844 l 461 931 z "},"Ȅ":{"ha":933,"x_min":79,"x_max":863,"o":"m 264 821 q 863 821 264 821 l 863 717 l 291 717 q 220 689 249 718 q 193 618 193 662 l 193 476 l 750 476 l 750 372 l 193 372 l 193 202 q 220 132 193 160 q 291 104 249 104 l 863 104 l 863 0 l 264 0 q 134 54 189 0 q 79 185 79 109 l 79 635 q 134 766 79 712 q 264 821 189 821 m 274 1146 l 471 972 l 410 890 l 196 1059 l 274 1146 m 551 1146 l 747 972 l 687 890 l 473 1059 l 551 1146 z "},"ȅ":{"ha":770,"x_min":78,"x_max":694,"o":"m 256 605 q 515 605 256 605 q 642 557 590 605 q 694 444 694 511 l 694 246 l 186 246 l 186 136 q 203 106 186 118 q 242 94 219 95 q 640 94 242 94 l 640 0 l 223 0 q 120 36 163 0 q 78 123 78 73 l 78 246 l 78 444 q 130 558 78 511 q 256 605 183 605 m 282 507 q 214 482 242 507 q 186 421 186 458 l 186 344 l 585 344 l 585 421 q 557 483 584 458 q 490 507 530 507 l 282 507 m 189 930 l 385 756 l 325 674 l 111 843 l 189 930 m 465 930 l 662 756 l 602 674 l 387 843 l 465 930 z "},"Ȉ":{"ha":300,"x_min":-124,"x_max":427,"o":"m 95 821 l 208 821 l 208 0 l 95 0 l 95 821 m -46 1146 l 151 972 l 90 890 l -124 1059 l -46 1146 m 231 1146 l 427 972 l 367 890 l 153 1059 l 231 1146 z "},"ȉ":{"ha":284,"x_min":-132,"x_max":419,"o":"m 89 605 l 197 605 l 197 0 l 89 0 l 89 605 m -54 930 l 142 756 l 82 674 l -132 843 l -54 930 m 222 930 l 419 756 l 359 674 l 144 843 l 222 930 z "},"Ȍ":{"ha":1029,"x_min":79,"x_max":946,"o":"m 264 821 q 760 821 264 821 q 892 766 838 821 q 946 635 946 712 l 946 185 q 891 54 946 109 q 760 0 837 0 l 264 0 q 134 54 189 0 q 79 185 79 109 l 79 635 q 134 766 79 712 q 264 821 189 821 m 291 720 q 220 691 249 720 q 193 621 193 663 l 193 200 q 220 130 193 157 q 291 102 249 102 l 734 102 q 805 130 777 102 q 833 200 833 159 l 833 621 q 804 691 833 663 q 734 720 777 720 l 291 720 m 315 1146 l 512 972 l 452 890 l 237 1059 l 315 1146 m 592 1146 l 789 972 l 728 890 l 514 1059 l 592 1146 z "},"ȍ":{"ha":804,"x_min":75,"x_max":724,"o":"m 254 605 q 545 605 254 605 q 672 557 620 605 q 724 444 724 511 l 724 161 q 671 47 724 94 q 545 0 619 0 l 254 0 q 127 47 180 0 q 75 161 75 95 l 75 444 q 127 558 75 511 q 254 605 180 606 m 279 506 q 211 481 239 506 q 184 420 184 456 l 184 184 q 211 123 184 147 q 279 98 239 98 l 519 98 q 588 123 562 98 q 615 184 615 147 l 615 420 q 588 481 615 457 q 519 506 562 506 l 279 506 m 202 931 l 399 757 l 338 675 l 124 844 l 202 931 m 479 931 l 675 757 l 615 675 l 401 844 l 479 931 z "},"Ȑ":{"ha":994,"x_min":95,"x_max":908,"o":"m 208 720 l 208 442 l 658 442 q 729 471 701 442 q 757 541 757 499 q 757 621 757 541 q 728 691 757 663 q 658 720 700 720 l 208 720 m 548 340 l 208 340 l 208 0 l 95 0 l 95 821 l 684 821 q 815 766 761 821 q 869 635 869 712 l 869 525 q 815 394 869 449 q 684 340 761 340 l 665 340 l 867 -1 l 741 -1 l 548 340 m 304 1146 l 501 972 l 441 890 l 227 1059 l 304 1146 m 581 1146 l 778 972 l 718 890 l 503 1059 l 581 1146 z "},"ȑ":{"ha":599,"x_min":35,"x_max":587,"o":"m 263 605 q 536 605 263 605 l 536 507 l 289 507 q 221 483 248 507 q 194 421 195 459 l 194 1 l 85 1 l 85 444 q 137 558 85 511 q 263 605 190 606 m 113 931 l 310 757 l 250 675 l 35 844 l 113 931 m 390 931 l 587 757 l 526 675 l 312 844 l 390 931 z "},"Ȕ":{"ha":1027,"x_min":88,"x_max":937,"o":"m 88 821 l 201 821 l 201 200 q 229 130 202 157 q 300 102 258 102 l 726 102 q 796 130 769 102 q 824 200 825 157 l 824 821 l 937 821 l 937 185 q 883 54 937 109 q 752 0 829 0 l 273 0 q 142 54 197 0 q 88 185 88 109 l 88 821 m 315 1146 l 512 972 l 452 890 l 237 1059 l 315 1146 m 592 1146 l 789 972 l 728 890 l 514 1059 l 592 1146 z "},"ȕ":{"ha":788,"x_min":79,"x_max":705,"o":"m 705 161 q 652 47 705 95 q 526 0 601 0 l 258 0 q 132 47 184 0 q 79 161 79 94 l 79 605 l 189 605 l 189 184 q 216 123 189 147 q 283 98 243 98 l 500 98 q 568 122 541 98 q 595 184 595 146 l 595 605 l 705 605 l 705 161 m 195 930 l 391 756 l 331 674 l 117 843 l 195 930 m 471 930 l 668 756 l 608 674 l 393 843 l 471 930 z "},"˙":{"ha":290,"x_min":79,"x_max":212,"o":"m 79 939 l 212 939 l 212 819 l 79 819 l 79 939 z "},"Ȧ":{"ha":1044,"x_min":37,"x_max":1019,"o":"m 427 821 l 562 821 l 951 0 l 825 0 l 707 252 l 282 252 l 164 0 l 37 0 l 427 821 m 494 707 l 330 355 l 659 355 l 494 707 m 462 1009 l 595 1009 l 595 890 l 462 890 l 462 1009 z "},"ȧ":{"ha":777,"x_min":74,"x_max":690,"o":"m 690 0 l 254 0 q 126 47 179 0 q 74 161 74 95 l 74 444 q 127 558 74 511 q 254 605 180 606 l 690 605 l 690 0 m 581 98 l 581 506 l 279 506 q 210 481 238 506 q 183 420 184 457 q 183 184 183 420 q 210 123 184 147 q 279 98 238 98 l 581 98 m 315 794 l 448 794 l 448 675 l 315 675 l 315 794 z "},"Ȯ":{"ha":1029,"x_min":79,"x_max":946,"o":"m 264 821 q 760 821 264 821 q 892 766 838 821 q 946 635 946 712 l 946 185 q 891 54 946 109 q 760 0 837 0 l 264 0 q 134 54 189 0 q 79 185 79 109 l 79 635 q 134 766 79 712 q 264 821 189 821 m 291 720 q 220 691 249 720 q 193 621 193 663 l 193 200 q 220 130 193 157 q 291 102 249 102 l 734 102 q 805 130 777 102 q 833 200 833 159 l 833 621 q 804 691 833 663 q 734 720 777 720 l 291 720 m 446 1009 l 579 1009 l 579 890 l 446 890 l 446 1009 z "},"ȯ":{"ha":804,"x_min":75,"x_max":724,"o":"m 254 605 q 545 605 254 605 q 672 557 620 605 q 724 444 724 511 l 724 161 q 671 47 724 94 q 545 0 619 0 l 254 0 q 127 47 180 0 q 75 161 75 95 l 75 444 q 127 558 75 511 q 254 605 180 606 m 279 506 q 211 481 239 506 q 184 420 184 456 l 184 184 q 211 123 184 147 q 279 98 239 98 l 519 98 q 588 123 562 98 q 615 184 615 147 l 615 420 q 588 481 615 457 q 519 506 562 506 l 279 506 m 333 794 l 466 794 l 466 675 l 333 675 l 333 794 z "},"˛":{"ha":359,"x_min":68,"x_max":292,"o":"m 292 -227 l 292 -312 l 178 -312 q 100 -275 133 -312 q 68 -190 68 -240 l 68 -123 q 100 -36 68 -72 q 178 0 133 0 l 292 0 l 292 -57 l 204 -57 q 170 -75 182 -57 q 156 -119 156 -94 l 156 -168 q 170 -210 156 -193 q 204 -227 182 -228 l 292 -227 z "},"Ą":{"ha":1044,"x_min":104,"x_max":1019,"o":"m 562 707 l 397 355 l 726 355 l 562 707 m 1019 0 l 1019 -56 l 930 -56 q 896 -74 909 -56 q 882 -118 882 -92 l 882 -166 q 896 -209 882 -191 q 930 -225 909 -227 l 1019 -225 l 1019 -311 l 904 -311 q 827 -274 859 -311 q 795 -189 795 -239 l 795 -121 q 827 -35 795 -71 q 892 1 855 -3 l 774 252 l 349 252 l 231 0 l 104 0 l 494 821 l 629 821 l 1019 0 z "},"ą":{"ha":777,"x_min":74,"x_max":690,"o":"m 690 0 l 254 0 q 126 47 179 0 q 74 161 74 95 l 74 444 q 127 558 74 511 q 254 605 180 606 l 690 605 l 690 0 m 581 98 l 581 506 l 279 506 q 210 481 238 506 q 183 420 184 457 q 183 184 183 420 q 210 123 184 147 q 279 98 238 98 l 581 98 m 690 -226 l 690 -311 l 576 -311 q 499 -275 532 -311 q 467 -189 467 -239 l 467 -122 q 499 -35 467 -71 q 576 1 532 1 l 690 1 l 690 -56 l 603 -56 q 568 -75 581 -56 q 555 -119 555 -93 l 555 -167 q 568 -210 555 -192 q 603 -226 581 -227 l 690 -226 z "},"Ę":{"ha":933,"x_min":79,"x_max":864,"o":"m 264 821 q 863 821 264 821 l 863 717 l 291 717 q 220 689 249 718 q 193 618 193 662 l 193 476 l 750 476 l 750 372 l 193 372 l 193 202 q 220 132 193 160 q 291 104 249 104 l 863 104 l 863 0 l 264 0 q 134 54 189 0 q 79 185 79 109 l 79 635 q 134 766 79 712 q 264 821 189 821 m 864 -227 l 864 -312 l 750 -312 q 673 -275 705 -312 q 641 -190 641 -240 l 641 -123 q 673 -36 641 -72 q 750 0 705 0 l 864 0 l 864 -57 l 777 -57 q 742 -75 755 -57 q 728 -119 728 -94 l 728 -168 q 742 -210 728 -193 q 777 -227 755 -228 l 864 -227 z "},"ę":{"ha":770,"x_min":78,"x_max":694,"o":"m 256 605 q 515 605 256 605 q 642 557 590 605 q 694 444 694 511 l 694 246 l 186 246 l 186 136 q 203 106 186 118 q 242 94 219 95 q 640 94 242 94 l 640 0 l 223 0 q 120 36 163 0 q 78 123 78 73 l 78 246 l 78 444 q 130 558 78 511 q 256 605 183 605 m 282 507 q 214 482 242 507 q 186 421 186 458 l 186 344 l 585 344 l 585 421 q 557 483 584 458 q 490 507 530 507 l 282 507 m 640 -226 l 640 -311 l 526 -311 q 448 -275 481 -311 q 416 -189 416 -239 l 416 -122 q 448 -35 416 -71 q 526 1 481 1 l 640 1 l 640 -56 l 552 -56 q 517 -75 530 -56 q 504 -119 504 -93 l 504 -167 q 517 -210 504 -192 q 552 -226 530 -227 l 640 -226 z "},"Į":{"ha":300,"x_min":-16,"x_max":208,"o":"m 95 821 l 208 821 l 208 0 l 95 0 l 95 821 m 207 -227 l 207 -313 l 93 -313 q 16 -276 48 -313 q -16 -191 -16 -241 l -16 -123 q 16 -37 -16 -73 q 93 -1 48 -1 l 207 -1 l 207 -58 l 119 -58 q 85 -76 98 -58 q 71 -120 71 -94 l 71 -168 q 85 -211 71 -193 q 119 -227 98 -229 l 207 -227 z "},"į":{"ha":284,"x_min":-25,"x_max":198,"o":"m 89 605 l 197 605 l 197 0 l 89 0 l 89 605 m 198 -227 l 198 -312 l 84 -312 q 7 -275 39 -312 q -25 -190 -25 -240 l -25 -123 q 7 -36 -25 -72 q 84 0 39 0 l 198 0 l 198 -57 l 111 -57 q 76 -75 89 -57 q 62 -119 62 -94 l 62 -168 q 76 -210 62 -193 q 111 -227 89 -228 l 198 -227 z "},"Ų":{"ha":1027,"x_min":88,"x_max":937,"o":"m 646 0 l 273 0 q 142 54 197 0 q 88 185 88 109 l 88 821 l 201 821 l 201 200 q 229 130 202 157 q 300 102 258 102 l 726 102 q 796 130 769 102 q 824 200 825 157 l 824 821 l 937 821 l 937 185 q 883 54 937 109 q 749 0 829 0 q 717 -18 729 -1 q 703 -62 703 -37 l 703 -111 q 717 -153 703 -136 q 751 -170 730 -171 l 839 -170 l 839 -255 l 725 -255 q 648 -218 680 -255 q 616 -133 616 -183 l 616 -85 q 646 0 616 -35 z "},"ų":{"ha":788,"x_min":79,"x_max":705,"o":"m 425 0 l 258 0 q 132 47 184 0 q 79 161 79 94 l 79 605 l 189 605 l 189 184 q 216 123 189 147 q 283 98 243 98 l 500 98 q 568 122 541 98 q 595 184 595 146 l 595 605 l 705 605 l 705 161 q 652 47 705 95 q 526 0 601 0 l 513 0 q 490 -17 499 -3 q 476 -61 476 -35 l 476 -109 q 490 -152 476 -134 q 524 -168 503 -170 l 612 -168 l 612 -254 l 498 -254 q 420 -217 453 -254 q 389 -132 389 -182 l 389 -92 q 420 -5 389 -41 q 425 0 422 -2 z "},"Ǫ":{"ha":1029,"x_min":79,"x_max":946,"o":"m 291 720 q 220 691 249 720 q 193 621 193 663 l 193 200 q 220 130 193 157 q 291 102 249 102 l 734 102 q 805 130 777 102 q 833 200 833 159 l 833 621 q 804 691 833 663 q 734 720 777 720 l 291 720 m 642 0 l 264 0 q 134 54 189 0 q 79 185 79 109 l 79 635 q 134 766 79 712 q 264 821 189 821 q 760 821 264 821 q 892 766 838 821 q 946 635 946 712 l 946 185 q 891 54 946 109 q 758 0 837 0 q 726 -18 738 -1 q 712 -62 712 -37 l 712 -111 q 726 -153 712 -136 q 760 -170 739 -171 l 848 -170 l 848 -255 l 734 -255 q 656 -218 689 -255 q 625 -133 625 -183 l 625 -66 q 642 0 625 -29 z "},"ǫ":{"ha":804,"x_min":75,"x_max":724,"o":"m 279 506 q 211 481 239 506 q 184 420 184 456 l 184 184 q 211 123 184 147 q 279 98 239 98 l 519 98 q 588 123 562 98 q 615 184 615 147 l 615 420 q 588 481 615 457 q 519 506 562 506 l 279 506 m 426 0 l 254 0 q 127 47 180 0 q 75 161 75 95 l 75 444 q 127 558 75 511 q 254 605 180 606 q 545 605 254 605 q 672 557 620 605 q 724 444 724 511 l 724 161 q 671 47 724 94 q 543 0 619 0 q 511 -18 523 -1 q 497 -62 497 -37 l 497 -111 q 511 -153 497 -136 q 545 -170 524 -171 l 633 -170 l 633 -255 l 519 -255 q 441 -218 474 -255 q 410 -133 410 -183 l 410 -66 q 426 0 410 -29 z "},"¼":{"ha":893,"x_min":68,"x_max":825,"o":"m 494 821 l 600 821 l 217 0 l 111 0 l 494 821 m 68 777 l 156 777 l 156 334 l 68 334 l 68 777 m 600 444 l 700 444 l 539 144 l 689 144 l 689 227 l 770 227 l 770 144 l 825 144 l 825 68 l 770 68 l 770 0 l 689 0 l 689 68 l 428 68 l 428 124 l 600 444 z "},"½":{"ha":939,"x_min":68,"x_max":871,"o":"m 523 442 l 779 442 q 844 415 817 442 q 871 350 871 388 l 871 262 q 844 197 871 224 q 779 170 817 170 l 647 170 q 611 156 626 170 q 597 121 597 142 l 597 85 l 871 85 l 871 0 l 509 0 l 509 156 q 536 221 509 194 q 602 248 564 248 l 733 248 q 768 262 755 248 q 783 297 783 277 l 783 307 q 768 342 783 327 q 733 355 754 355 l 523 355 l 523 442 m 494 821 l 600 821 l 217 0 l 111 0 l 494 821 m 68 777 l 156 777 l 156 334 l 68 334 l 68 777 z "},"¾":{"ha":1107,"x_min":68,"x_max":1039,"o":"m 68 775 l 320 775 q 388 757 362 775 q 414 702 414 739 l 414 631 q 412 614 414 621 q 410 598 412 608 q 400 583 407 589 q 384 574 395 578 q 357 568 373 570 q 404 549 384 569 q 423 507 424 531 l 423 406 q 397 351 423 370 q 331 332 372 332 l 68 332 l 68 418 l 291 418 q 340 454 340 418 l 340 484 q 291 519 340 519 l 123 519 l 123 601 l 281 601 q 330 637 331 601 l 330 651 q 281 689 331 689 l 68 689 l 68 775 m 707 821 l 813 821 l 431 0 l 325 0 l 707 821 m 813 444 l 913 444 l 753 144 l 903 144 l 903 227 l 984 227 l 984 144 l 1039 144 l 1039 68 l 984 68 l 984 0 l 903 0 l 903 68 l 642 68 l 642 124 l 813 444 z "},"§":{"ha":722,"x_min":51,"x_max":671,"o":"m 217 479 q 159 433 159 479 l 159 355 q 217 308 159 308 l 504 308 q 562 355 562 308 l 562 433 q 504 479 562 479 l 217 479 m 99 532 q 73 604 73 564 l 73 696 q 115 785 73 748 q 218 821 158 821 q 616 821 218 821 l 616 728 l 237 728 q 196 714 212 728 q 181 680 181 701 l 181 616 q 197 582 181 596 q 237 569 212 569 l 526 569 q 629 532 587 569 q 671 445 671 496 l 671 347 q 628 260 671 296 q 623 255 626 258 q 649 184 649 224 l 649 91 q 606 3 649 39 q 504 -33 564 -34 q 105 -33 504 -33 l 105 60 l 485 60 q 526 73 509 60 q 541 107 541 86 l 541 171 q 525 205 541 191 q 485 218 509 218 l 196 218 q 93 255 135 218 q 51 342 51 292 l 51 440 q 94 528 51 491 q 99 532 96 530 z "}}}
